<svg xmlns="http://www.w3.org/2000/svg" viewBox="0 0 1712.35 1617.8"><defs><style>.cls-1{fill:#c1bebd;}.cls-2{fill:#e31318;}</style></defs><g id="Calque_2" data-name="Calque 2"><g id="Calque_1-2" data-name="Calque 1"><path class="cls-1" d="M694.2,1567a9,9,0,0,1,9,9v30.87a9,9,0,0,1-9,9H660.9a9,9,0,0,1-9.06-9V1576a9,9,0,0,1,9.06-9h33.3m0-2H660.9a11,11,0,0,0-11.06,11v30.87a11,11,0,0,0,11.06,11h33.3a11,11,0,0,0,11-11V1576a11,11,0,0,0-11-11Z"/><path class="cls-2" d="M763.12,1576v30.87a9,9,0,0,1-9.06,9h-33.3a9,9,0,0,1-9-9V1580c0-8.19-1.38-11.77-6.21-16.21-3.46-3.16-8.23-3.72-10.67-3.78l-.63,0H660.9a9,9,0,0,1-9.06-9v-30.87a9,9,0,0,1,9.06-9h33.3a9,9,0,0,1,9,9v15.43c0,6.49,0,11.6,7.25,20.47,6,8.05,14.63,10.35,20.46,10.91h23.1A9,9,0,0,1,763.12,1576Z"/><path class="cls-1" d="M763.76,1515.47v30.87a9,9,0,0,1-9,9h-33.3a9,9,0,0,1-9.06-9v-30.87a9,9,0,0,1,9.06-9h33.3A9,9,0,0,1,763.76,1515.47Z"/><path class="cls-2" d="M754.71,1450.75a9,9,0,0,1,9,9v15.43c0,6.49,0,11.6,7.25,20.47,6,8.05,14.63,10.35,20.46,10.91h23.1a9,9,0,0,1,9.06,9v30.87a9,9,0,0,1-9.06,9h-33.3a9,9,0,0,1-9-9v-26.86c0-8.19-1.38-11.77-6.21-16.21-3.46-3.16-8.23-3.72-10.67-3.78l-.63,0h-33.3a9,9,0,0,1-9.06-9V1459.7a9,9,0,0,1,9.06-9h33.3m0-2h-33.3a11,11,0,0,0-11.06,11v30.87a11,11,0,0,0,11.06,11h33.3l.55,0h.11c2.25.07,6.37.58,9.3,3.26,4.41,4.06,5.55,7.09,5.55,14.73v26.86a11,11,0,0,0,11,11h33.3a11,11,0,0,0,11.06-11v-30.87a11,11,0,0,0-11.06-11h-23c-5.62-.56-13.44-2.77-19-10.11l0,0,0,0c-6.8-8.31-6.8-12.88-6.8-19.2V1459.7a11,11,0,0,0-11-11Z"/><path class="cls-1" d="M697.5,1397.45a9,9,0,0,1,9.06,9v30.87a9,9,0,0,1-9.06,9H664.2a9,9,0,0,1-9.05-9V1406.4a9,9,0,0,1,9.05-9h33.3m0-2H664.2a11,11,0,0,0-11.05,11v30.87a11,11,0,0,0,11.05,11h33.3a11,11,0,0,0,11.06-11V1406.4a11,11,0,0,0-11.06-11Z"/><path class="cls-2" d="M595.28,1437.27V1406.4a9,9,0,0,1,9.06-9h33.3a9,9,0,0,1,9.05,9v26.86c0,8.19,1.38,11.77,6.21,16.21,3.46,3.16,8.23,3.72,10.67,3.78l.63,0h33.3a9,9,0,0,1,9.06,9V1493a9,9,0,0,1-9.06,9H664.2a9,9,0,0,1-9.05-9v-15.43c0-6.49,0-11.6-7.25-20.47-6-8.05-14.63-10.35-20.46-10.91h-23.1A9,9,0,0,1,595.28,1437.27Z"/><path class="cls-1" d="M594.64,1497.78v-30.87a9,9,0,0,1,9.05-9H637a9,9,0,0,1,9.06,9v30.87a9,9,0,0,1-9.06,9h-33.3A9,9,0,0,1,594.64,1497.78Z"/><path class="cls-2" d="M577.13,1458a9,9,0,0,1,9,9v26.86c0,8.19,1.38,11.77,6.21,16.21,3.46,3.16,8.23,3.72,10.67,3.78l.63,0H637a9,9,0,0,1,9.06,9v30.87a9,9,0,0,1-9.06,9h-33.3a9,9,0,0,1-9.05-9v-15.43c0-6.49,0-11.6-7.25-20.47-6-8.05-14.63-10.35-20.46-10.91h-23.1a9,9,0,0,1-9.06-9v-30.87a9,9,0,0,1,9.06-9h33.3m0-2h-33.3a11,11,0,0,0-11.06,11v30.87a11,11,0,0,0,11.06,11h23c5.62.55,13.44,2.76,19,10.11l0,0,0,0c6.8,8.32,6.8,12.89,6.8,19.21v15.43a11,11,0,0,0,11.05,11H637a11,11,0,0,0,11.06-11v-30.87a11,11,0,0,0-11.06-11h-33.3l-.55,0H603c-2.25-.06-6.37-.58-9.3-3.25-4.41-4.06-5.55-7.09-5.55-14.73v-26.86a11,11,0,0,0-11-11Z"/><path class="cls-1" d="M516.62,1397.45a9,9,0,0,1,9,9v30.87a9,9,0,0,1-9,9h-33.3a9,9,0,0,1-9.06-9v-30.87a9,9,0,0,1,9.06-9h33.3m0-2h-33.3a11,11,0,0,0-11.06,11v30.87a11,11,0,0,0,11.06,11h33.3a11,11,0,0,0,11-11v-30.87a11,11,0,0,0-11-11Z"/><path class="cls-2" d="M585.53,1406.41v30.87a9,9,0,0,1-9.06,9h-33.3a9,9,0,0,1-9-9v-26.86c0-8.19-1.39-11.77-6.22-16.21-3.46-3.16-8.23-3.72-10.67-3.78l-.62,0H483.31a9,9,0,0,1-9.06-9v-30.87a9,9,0,0,1,9.06-9h33.31a9,9,0,0,1,9,9v15.43c0,6.49,0,11.6,7.25,20.47,6.05,8,14.63,10.35,20.47,10.91h23.09A9,9,0,0,1,585.53,1406.41Z"/><path class="cls-1" d="M586.18,1345.89v30.87a9,9,0,0,1-9,9h-33.3a9,9,0,0,1-9.06-9v-30.87a9,9,0,0,1,9.06-9h33.3A9,9,0,0,1,586.18,1345.89Z"/><path class="cls-2" d="M577.13,1281.17a9,9,0,0,1,9,8.95v15.43c0,6.49,0,11.6,7.25,20.47,6.05,8,14.63,10.35,20.46,10.91H637a9,9,0,0,1,9.06,9v30.87a9,9,0,0,1-9.06,9h-33.3a9,9,0,0,1-9.05-9V1349.9c0-8.19-1.38-11.77-6.21-16.21-3.46-3.16-8.23-3.72-10.67-3.78l-.63,0h-33.3a9,9,0,0,1-9.06-9v-30.87a9,9,0,0,1,9.06-8.95h33.3m0-2h-33.3a11,11,0,0,0-11.06,10.95V1321a11,11,0,0,0,11.06,11h33.3l.54,0h.12c2.24.06,6.36.58,9.29,3.25,4.41,4.06,5.56,7.09,5.56,14.73v26.86a11,11,0,0,0,11.05,11H637a11,11,0,0,0,11.06-11v-30.87a11,11,0,0,0-11.06-11H614c-5.62-.55-13.44-2.76-19-10.11l0,0,0,0c-6.79-8.32-6.79-12.89-6.79-19.21v-15.43a11,11,0,0,0-11-10.95Z"/><path class="cls-1" d="M519.91,1227.87a9,9,0,0,1,9.06,9v30.87a9,9,0,0,1-9.06,9h-33.3a9,9,0,0,1-9.05-9v-30.87a9,9,0,0,1,9.05-9h33.3m0-2h-33.3a11,11,0,0,0-11.05,11v30.87a11,11,0,0,0,11.05,11h33.3a11,11,0,0,0,11.06-11v-30.87a11,11,0,0,0-11.06-11Z"/><path class="cls-2" d="M417.69,1267.69v-30.87a9,9,0,0,1,9.06-9h33.3a9,9,0,0,1,9.05,9v26.86c0,8.19,1.38,11.77,6.21,16.21,3.46,3.16,8.23,3.72,10.67,3.78l.63,0h33.3a9,9,0,0,1,9.06,8.95v30.87a9,9,0,0,1-9.06,9h-33.3a9,9,0,0,1-9.05-9V1308c0-6.49,0-11.6-7.25-20.47-6.05-8-14.63-10.35-20.46-10.91h-23.1A9,9,0,0,1,417.69,1267.69Z"/><path class="cls-1" d="M417.05,1328.2v-30.87a9,9,0,0,1,9.05-8.95h33.3a9,9,0,0,1,9.06,8.95v30.87a9,9,0,0,1-9.06,9H426.1A9,9,0,0,1,417.05,1328.2Z"/><path class="cls-2" d="M399.54,1288.38a9,9,0,0,1,9,8.95v26.86c0,8.19,1.38,11.77,6.21,16.21,3.46,3.16,8.23,3.72,10.67,3.78l.63,0h33.3a9,9,0,0,1,9.06,8.95V1384a9,9,0,0,1-9.06,9H426.1a9,9,0,0,1-9.05-9v-15.43c0-6.49,0-11.6-7.25-20.47-6.05-8-14.63-10.35-20.46-10.91h-23.1a9,9,0,0,1-9.06-9v-30.87a9,9,0,0,1,9.06-8.95h33.3m0-2h-33.3a11,11,0,0,0-11.06,10.95v30.87a11,11,0,0,0,11.06,11h23c5.62.56,13.44,2.77,19,10.11l0,0,0,0c6.8,8.31,6.8,12.88,6.8,19.2V1384a11,11,0,0,0,11.05,11h33.3a11,11,0,0,0,11.06-11V1353.1a11,11,0,0,0-11.06-10.95H426.1l-.55,0h-.11c-2.25-.07-6.37-.58-9.29-3.26-4.42-4.06-5.56-7.09-5.56-14.73v-26.86a11,11,0,0,0-11-10.95Z"/><path class="cls-1" d="M339,1227.87a9,9,0,0,1,9.05,9v30.87a9,9,0,0,1-9.05,9h-33.3a9,9,0,0,1-9.06-9v-30.87a9,9,0,0,1,9.06-9H339m0-2h-33.3a11,11,0,0,0-11.06,11v30.87a11,11,0,0,0,11.06,11H339a11,11,0,0,0,11.05-11v-30.87a11,11,0,0,0-11.05-11Z"/><path class="cls-2" d="M408,1236.83v30.87a9,9,0,0,1-9.06,9h-33.3a9,9,0,0,1-9-9v-26.86c0-8.19-1.38-11.77-6.21-16.21-3.46-3.16-8.23-3.72-10.67-3.78l-.63,0h-33.3a9,9,0,0,1-9.06-9v-30.87a9,9,0,0,1,9.06-9H339a9,9,0,0,1,9.05,9v15.43c0,6.49,0,11.6,7.25,20.47,6.05,8,14.63,10.35,20.46,10.91h23.1A9,9,0,0,1,408,1236.83Z"/><path class="cls-1" d="M408.59,1176.32v30.87a9,9,0,0,1-9,9h-33.3a9,9,0,0,1-9.06-9v-30.87a9,9,0,0,1,9.06-9h33.3A9,9,0,0,1,408.59,1176.32Z"/><path class="cls-2" d="M399.54,1111.6a9,9,0,0,1,9,9V1136c0,6.49,0,11.6,7.25,20.47,6.05,8,14.63,10.35,20.46,10.91h23.1a9,9,0,0,1,9.06,9v30.87a9,9,0,0,1-9.06,9H426.1a9,9,0,0,1-9.05-9v-26.86c0-8.19-1.38-11.77-6.21-16.21-3.46-3.16-8.23-3.72-10.67-3.78l-.63,0h-33.3a9,9,0,0,1-9.06-8.95v-30.87a9,9,0,0,1,9.06-9h33.3m0-2h-33.3a11,11,0,0,0-11.06,11v30.87a11,11,0,0,0,11.06,10.95h33.3l.54,0h.12c2.24.07,6.36.58,9.29,3.26,4.41,4.05,5.56,7.08,5.56,14.73v26.86a11,11,0,0,0,11.05,11h33.3a11,11,0,0,0,11.06-11v-30.87a11,11,0,0,0-11.06-11h-23c-5.62-.56-13.43-2.77-18.95-10.11l0,0,0,0c-6.8-8.31-6.8-12.88-6.8-19.2v-15.43a11,11,0,0,0-11-11Z"/><path class="cls-1" d="M342.32,1058.29a9,9,0,0,1,9.06,9v30.87a9,9,0,0,1-9.06,9H309a9,9,0,0,1-9-9v-30.87a9,9,0,0,1,9-9h33.3m0-2H309a11,11,0,0,0-11,11v30.87a11,11,0,0,0,11,11h33.3a11,11,0,0,0,11.06-11v-30.87a11,11,0,0,0-11.06-11Z"/><path class="cls-2" d="M240.1,1098.11v-30.87a9,9,0,0,1,9.06-9h33.3a9,9,0,0,1,9.05,9v26.86c0,8.19,1.38,11.77,6.21,16.21,3.46,3.16,8.23,3.72,10.67,3.78l.63,0h33.3a9,9,0,0,1,9.06,9v30.87a9,9,0,0,1-9.06,8.95H309a9,9,0,0,1-9-8.95v-15.43c0-6.49,0-11.6-7.25-20.47-6.05-8-14.63-10.35-20.46-10.91h-23.1A9,9,0,0,1,240.1,1098.11Z"/><path class="cls-1" d="M239.46,1158.62v-30.87a9,9,0,0,1,9-9h33.3a9,9,0,0,1,9.06,9v30.87a9,9,0,0,1-9.06,9h-33.3A9,9,0,0,1,239.46,1158.62Z"/><path class="cls-2" d="M222,1118.8a9,9,0,0,1,9.05,9v26.86c0,8.19,1.38,11.77,6.21,16.21,3.46,3.16,8.23,3.72,10.67,3.78l.63,0h33.3a9,9,0,0,1,9.06,9v30.87a9,9,0,0,1-9.06,8.95h-33.3a9,9,0,0,1-9-8.95V1199c0-6.49,0-11.6-7.25-20.47-6.05-8-14.63-10.35-20.46-10.91h-23.1a9,9,0,0,1-9.06-9v-30.87a9,9,0,0,1,9.06-9H222m0-2h-33.3a11,11,0,0,0-11.06,11v30.87a11,11,0,0,0,11.06,11h23c5.62.56,13.44,2.77,19,10.12l0,0,0,0c6.8,8.32,6.8,12.88,6.8,19.2v15.43a11,11,0,0,0,11,10.95h33.3a11,11,0,0,0,11.06-10.95v-30.87a11,11,0,0,0-11.06-11h-33.3a5.07,5.07,0,0,0-.55,0h-.11c-2.25-.06-6.36-.58-9.29-3.25-4.42-4.06-5.56-7.09-5.56-14.74v-26.86a11,11,0,0,0-11.05-11Z"/><path class="cls-1" d="M161.44,1058.29a9,9,0,0,1,9.05,9v30.87a9,9,0,0,1-9.05,9h-33.3a9,9,0,0,1-9.06-9v-30.87a9,9,0,0,1,9.06-9h33.3m0-2h-33.3a11,11,0,0,0-11.06,11v30.87a11,11,0,0,0,11.06,11h33.3a11,11,0,0,0,11.05-11v-30.87a11,11,0,0,0-11.05-11Z"/><path class="cls-2" d="M230.36,1067.25v30.87a9,9,0,0,1-9.06,9H188a9,9,0,0,1-9.05-9v-26.86c0-8.19-1.38-11.77-6.21-16.21-3.46-3.16-8.23-3.72-10.67-3.78l-.63,0h-33.3a9,9,0,0,1-9.06-9v-30.87a9,9,0,0,1,9.06-9h33.3a9,9,0,0,1,9.05,9v15.43c0,6.49,0,11.6,7.25,20.47,6,8,14.63,10.35,20.46,10.91h23.1A9,9,0,0,1,230.36,1067.25Z"/><path class="cls-1" d="M231,1006.74v30.87a9,9,0,0,1-9.05,9h-33.3a9,9,0,0,1-9.06-9v-30.87a9,9,0,0,1,9.06-9H222A9,9,0,0,1,231,1006.74Z"/><path class="cls-2" d="M222,942a9,9,0,0,1,9.05,9V966.4c0,6.49,0,11.6,7.25,20.47,6.05,8,14.63,10.35,20.46,10.91h23.1a9,9,0,0,1,9.06,9v30.87a9,9,0,0,1-9.06,9h-33.3a9,9,0,0,1-9-9v-26.86c0-8.19-1.38-11.77-6.21-16.21-3.46-3.16-8.23-3.72-10.67-3.78l-.63,0h-33.3a9,9,0,0,1-9.06-8.95V951a9,9,0,0,1,9.06-9H222m0-2h-33.3a11,11,0,0,0-11.06,11v30.87a11,11,0,0,0,11.06,10.95H222l.55,0h.11c2.25.06,6.36.58,9.29,3.25,4.41,4.06,5.56,7.09,5.56,14.73v26.86a11,11,0,0,0,11,11h33.3a11,11,0,0,0,11.06-11v-30.87a11,11,0,0,0-11.06-11h-23c-5.63-.55-13.44-2.76-19-10.11l0,0,0,0c-6.8-8.32-6.8-12.89-6.8-19.21V951A11,11,0,0,0,222,940Z"/><path class="cls-1" d="M164.73,888.72a9,9,0,0,1,9.06,8.95v30.87a9,9,0,0,1-9.06,9h-33.3a9,9,0,0,1-9.05-9V897.67a9,9,0,0,1,9.05-8.95h33.3m0-2h-33.3a11,11,0,0,0-11.05,10.95v30.87a11,11,0,0,0,11.05,11h33.3a11,11,0,0,0,11.06-11V897.67a11,11,0,0,0-11.06-10.95Z"/><path class="cls-2" d="M62.51,928.54V897.67a9,9,0,0,1,9.06-8.95h33.3a9,9,0,0,1,9,8.95v26.86c0,8.19,1.38,11.77,6.21,16.21,3.46,3.16,8.23,3.72,10.67,3.78l.63,0h33.3a9,9,0,0,1,9.06,9v30.87a9,9,0,0,1-9.06,9h-33.3a9,9,0,0,1-9.05-9V968.88c0-6.49,0-11.6-7.25-20.47-6-8-14.63-10.35-20.46-10.91H71.57A9,9,0,0,1,62.51,928.54Z"/><path class="cls-1" d="M61.87,989.05V958.18a9,9,0,0,1,9.05-8.95h33.3a9,9,0,0,1,9.06,8.95v30.87a9,9,0,0,1-9.06,9H70.92A9,9,0,0,1,61.87,989.05Z"/><path class="cls-2" d="M44.36,949.23a9,9,0,0,1,9,8.95V985c0,8.19,1.38,11.77,6.21,16.21,3.46,3.16,8.23,3.72,10.67,3.78l.63,0h33.3a9,9,0,0,1,9.06,9v30.87a9,9,0,0,1-9.06,9H70.92a9,9,0,0,1-9.05-9v-15.43c0-6.49,0-11.6-7.25-20.47-6-8-14.63-10.35-20.46-10.91H11.06a9,9,0,0,1-9.06-9V958.18a9,9,0,0,1,9.06-8.95h33.3m0-2H11.06A11,11,0,0,0,0,958.18v30.87a11,11,0,0,0,11.06,11h23c5.62.56,13.44,2.77,19,10.11l0,0,0,0c6.8,8.32,6.8,12.89,6.8,19.21v15.43a11,11,0,0,0,11.05,11h33.3a11,11,0,0,0,11.06-11V1014a11,11,0,0,0-11.06-11H70.92l-.55,0h-.11c-2.25-.07-6.36-.58-9.29-3.26-4.42-4.06-5.56-7.09-5.56-14.73V958.18a11,11,0,0,0-11-10.95Z"/><path class="cls-1" d="M820.13,1441.09a9,9,0,0,1,9,9v30.87a9,9,0,0,1-9,8.95h-33.3a9,9,0,0,1-9.06-8.95v-30.87a9,9,0,0,1,9.06-9h33.3m0-2h-33.3a11,11,0,0,0-11.06,11v30.87a11,11,0,0,0,11.06,10.95h33.3a11,11,0,0,0,11-10.95v-30.87a11,11,0,0,0-11-11Z"/><path class="cls-2" d="M889.05,1450.05v30.87a9,9,0,0,1-9.06,8.95h-33.3a9,9,0,0,1-9.05-8.95v-26.86c0-8.19-1.38-11.77-6.21-16.21-3.46-3.16-8.23-3.72-10.67-3.78l-.63,0h-33.3a9,9,0,0,1-9.06-8.95v-30.87a9,9,0,0,1,9.06-9h33.3a9,9,0,0,1,9,9v15.43c0,6.49,0,11.6,7.25,20.47,6.05,8,14.63,10.35,20.46,10.91H880A9,9,0,0,1,889.05,1450.05Z"/><path class="cls-1" d="M889.69,1389.54v30.87a9,9,0,0,1-9.05,8.95h-33.3a9,9,0,0,1-9.06-8.95v-30.87a9,9,0,0,1,9.06-9h33.3A9,9,0,0,1,889.69,1389.54Z"/><path class="cls-2" d="M880.64,1324.82a9,9,0,0,1,9.05,9v15.43c0,6.49,0,11.6,7.25,20.47,6,8,14.63,10.35,20.46,10.91h23.1a9,9,0,0,1,9.06,9v30.87a9,9,0,0,1-9.06,8.95H907.2a9,9,0,0,1-9.05-8.95v-26.86c0-8.19-1.38-11.77-6.21-16.21-3.46-3.16-8.23-3.72-10.67-3.78l-.63,0h-33.3a9,9,0,0,1-9.06-8.95v-30.87a9,9,0,0,1,9.06-9h33.3m0-2h-33.3a11,11,0,0,0-11.06,11v30.87a11,11,0,0,0,11.06,10.95h33.3l.55,0h.11c2.25.07,6.37.58,9.3,3.26,4.41,4.06,5.55,7.09,5.55,14.73v26.86a11,11,0,0,0,11.05,10.95h33.3a11,11,0,0,0,11.06-10.95v-30.87a11,11,0,0,0-11.06-11h-23c-5.62-.56-13.44-2.77-19-10.11l0,0,0,0c-6.8-8.31-6.8-12.88-6.8-19.2v-15.43a11,11,0,0,0-11.05-11Z"/><path class="cls-1" d="M823.43,1271.52a9,9,0,0,1,9.06,9v30.87a9,9,0,0,1-9.06,9h-33.3a9,9,0,0,1-9-9v-30.87a9,9,0,0,1,9-9h33.3m0-2h-33.3a11,11,0,0,0-11,11v30.87a11,11,0,0,0,11,11h33.3a11,11,0,0,0,11.06-11v-30.87a11,11,0,0,0-11.06-11Z"/><path class="cls-2" d="M721.21,1311.34v-30.87a9,9,0,0,1,9.06-9h33.3a9,9,0,0,1,9,9v26.86c0,8.19,1.38,11.77,6.21,16.21,3.46,3.16,8.23,3.72,10.67,3.78l.63,0h33.3a9,9,0,0,1,9.06,9v30.87a9,9,0,0,1-9.06,9h-33.3a9,9,0,0,1-9-9v-15.43c0-6.49,0-11.6-7.25-20.47-6.05-8-14.63-10.35-20.46-10.91h-23.1A9,9,0,0,1,721.21,1311.34Z"/><path class="cls-1" d="M720.57,1371.85V1341a9,9,0,0,1,9-9h33.3a9,9,0,0,1,9.06,9v30.87a9,9,0,0,1-9.06,9h-33.3A9,9,0,0,1,720.57,1371.85Z"/><path class="cls-2" d="M703.06,1332a9,9,0,0,1,9.05,9v26.86c0,8.19,1.38,11.77,6.21,16.21,3.46,3.16,8.23,3.72,10.67,3.78l.63,0h33.3a9,9,0,0,1,9.06,9v30.87a9,9,0,0,1-9.06,9h-33.3a9,9,0,0,1-9-9v-15.43c0-6.49,0-11.6-7.25-20.47-6.05-8-14.63-10.35-20.46-10.91h-23.1a9,9,0,0,1-9.06-9V1341a9,9,0,0,1,9.06-9h33.3m0-2h-33.3a11,11,0,0,0-11.06,11v30.87a11,11,0,0,0,11.06,11h23c5.62.55,13.44,2.76,19,10.11l0,0,0,0c6.8,8.32,6.8,12.89,6.8,19.21v15.43a11,11,0,0,0,11,11h33.3a11,11,0,0,0,11.06-11v-30.87a11,11,0,0,0-11.06-11h-33.3l-.55,0H729c-2.25-.06-6.37-.58-9.3-3.25-4.41-4.06-5.55-7.09-5.55-14.73V1341a11,11,0,0,0-11.05-11Z"/><path class="cls-1" d="M642.55,1271.52a9,9,0,0,1,9,9v30.87a9,9,0,0,1-9,9H609.24a9,9,0,0,1-9.06-9v-30.87a9,9,0,0,1,9.06-9h33.31m0-2H609.24a11,11,0,0,0-11.06,11v30.87a11,11,0,0,0,11.06,11h33.31a11,11,0,0,0,11-11v-30.87a11,11,0,0,0-11-11Z"/><path class="cls-2" d="M711.46,1280.48v30.87a9,9,0,0,1-9.06,9H669.1a9,9,0,0,1-9-9v-26.86c0-8.19-1.39-11.77-6.22-16.21-3.46-3.16-8.23-3.72-10.67-3.78l-.62,0H609.24a9,9,0,0,1-9.06-9v-30.87a9,9,0,0,1,9.06-9h33.31a9,9,0,0,1,9,9v15.43c0,6.49,0,11.6,7.25,20.47,6.06,8.05,14.63,10.35,20.47,10.91H702.4A9,9,0,0,1,711.46,1280.48Z"/><path class="cls-1" d="M712.11,1220v30.87a9,9,0,0,1-9.05,9h-33.3a9,9,0,0,1-9.06-9V1220a9,9,0,0,1,9.06-9h33.3A9,9,0,0,1,712.11,1220Z"/><path class="cls-2" d="M703.06,1155.24a9,9,0,0,1,9.05,9v15.43c0,6.49,0,11.6,7.25,20.47,6,8.05,14.63,10.35,20.46,10.91h23.1a9,9,0,0,1,9.06,9v30.87a9,9,0,0,1-9.06,9h-33.3a9,9,0,0,1-9-9V1224c0-8.19-1.38-11.77-6.21-16.21-3.46-3.16-8.23-3.72-10.67-3.78l-.63,0h-33.3a9,9,0,0,1-9.06-9v-30.87a9,9,0,0,1,9.06-9h33.3m0-2h-33.3a11,11,0,0,0-11.06,11v30.87a11,11,0,0,0,11.06,11h33.3l.54,0h.12c2.24.06,6.36.58,9.29,3.25,4.41,4.06,5.56,7.09,5.56,14.73v26.86a11,11,0,0,0,11,11h33.3a11,11,0,0,0,11.06-11V1220a11,11,0,0,0-11.06-11h-23c-5.62-.55-13.44-2.76-19-10.11l0,0,0,0c-6.79-8.32-6.79-12.89-6.79-19.21v-15.43a11,11,0,0,0-11.05-11Z"/><path class="cls-1" d="M645.84,1101.94a9,9,0,0,1,9.06,9v30.87a9,9,0,0,1-9.06,9h-33.3a9,9,0,0,1-9-9v-30.87a9,9,0,0,1,9-9h33.3m0-2h-33.3a11,11,0,0,0-11,11v30.87a11,11,0,0,0,11,11h33.3a11,11,0,0,0,11.06-11v-30.87a11,11,0,0,0-11.06-11Z"/><path class="cls-2" d="M543.62,1141.76v-30.87a9,9,0,0,1,9.06-9H586a9,9,0,0,1,9,9v26.86c0,8.19,1.38,11.77,6.21,16.21,3.46,3.16,8.23,3.72,10.67,3.78l.63,0h33.3a9,9,0,0,1,9.06,9v30.87a9,9,0,0,1-9.06,9h-33.3a9,9,0,0,1-9-9V1182.1c0-6.49,0-11.6-7.25-20.47-6-8.05-14.63-10.35-20.46-10.91h-23.1A9,9,0,0,1,543.62,1141.76Z"/><path class="cls-1" d="M543,1202.27V1171.4a9,9,0,0,1,9-9h33.3a9,9,0,0,1,9.06,9v30.87a9,9,0,0,1-9.06,9H552A9,9,0,0,1,543,1202.27Z"/><path class="cls-2" d="M525.47,1162.45a9,9,0,0,1,9,9v26.86c0,8.19,1.38,11.77,6.21,16.21,3.46,3.16,8.23,3.72,10.67,3.78l.63,0h33.3a9,9,0,0,1,9.06,9V1258a9,9,0,0,1-9.06,9H552a9,9,0,0,1-9-9v-15.43c0-6.49,0-11.6-7.25-20.47-6.05-8.05-14.63-10.35-20.46-10.91h-23.1a9,9,0,0,1-9.06-9V1171.4a9,9,0,0,1,9.06-9h33.3m0-2h-33.3a11,11,0,0,0-11.06,11v30.87a11,11,0,0,0,11.06,11h23c5.62.56,13.44,2.77,19,10.11l0,0,0,0c6.8,8.31,6.8,12.88,6.8,19.2V1258a11,11,0,0,0,11,11h33.3a11,11,0,0,0,11.06-11v-30.87a11,11,0,0,0-11.06-11H552l-.55,0h-.11c-2.25-.07-6.37-.58-9.29-3.26-4.42-4-5.56-7.09-5.56-14.73V1171.4a11,11,0,0,0-11-11Z"/><path class="cls-1" d="M465,1101.94a9,9,0,0,1,9.05,9v30.87a9,9,0,0,1-9.05,9h-33.3a9,9,0,0,1-9.06-9V1110.9a9,9,0,0,1,9.06-9H465m0-2h-33.3a11,11,0,0,0-11.06,11v30.87a11,11,0,0,0,11.06,11H465a11,11,0,0,0,11.05-11V1110.9a11,11,0,0,0-11.05-11Z"/><path class="cls-2" d="M533.88,1110.9v30.87a9,9,0,0,1-9.06,9h-33.3a9,9,0,0,1-9-9v-26.86c0-8.19-1.38-11.77-6.21-16.21-3.46-3.16-8.23-3.72-10.67-3.78l-.63,0h-33.3a9,9,0,0,1-9.06-9v-30.87a9,9,0,0,1,9.06-9H465a9,9,0,0,1,9.05,9v15.43c0,6.49,0,11.6,7.25,20.47,6.05,8,14.63,10.35,20.46,10.91h23.1A9,9,0,0,1,533.88,1110.9Z"/><path class="cls-1" d="M534.52,1050.39v30.87a9,9,0,0,1-9,9h-33.3a9,9,0,0,1-9.06-9v-30.87a9,9,0,0,1,9.06-9h33.3A9,9,0,0,1,534.52,1050.39Z"/><path class="cls-2" d="M525.47,985.67a9,9,0,0,1,9,9v15.43c0,6.49,0,11.6,7.25,20.47,6.05,8,14.63,10.35,20.46,10.91h23.1a9,9,0,0,1,9.06,9v30.87a9,9,0,0,1-9.06,9H552a9,9,0,0,1-9-9V1054.4c0-8.19-1.38-11.77-6.21-16.21-3.46-3.16-8.23-3.72-10.67-3.78l-.63,0h-33.3a9,9,0,0,1-9.06-9V994.62a9,9,0,0,1,9.06-9h33.3m0-2h-33.3a11,11,0,0,0-11.06,11v30.87a11,11,0,0,0,11.06,11h33.3l.54,0h.12c2.24.07,6.36.58,9.29,3.26,4.41,4,5.56,7.08,5.56,14.73v26.86a11,11,0,0,0,11,11h33.3a11,11,0,0,0,11.06-11v-30.87a11,11,0,0,0-11.06-11h-23c-5.62-.56-13.43-2.77-19-10.11l0,0,0,0c-6.8-8.31-6.8-12.88-6.8-19.2V994.62a11,11,0,0,0-11-11Z"/><path class="cls-1" d="M468.25,932.36a9,9,0,0,1,9.06,8.95v30.87a9,9,0,0,1-9.06,9H435a9,9,0,0,1-9.05-9V941.31a9,9,0,0,1,9.05-8.95h33.3m0-2H435a11,11,0,0,0-11.05,10.95v30.87a11,11,0,0,0,11.05,11h33.3a11,11,0,0,0,11.06-11V941.31a11,11,0,0,0-11.06-10.95Z"/><path class="cls-2" d="M366,972.18V941.31a9,9,0,0,1,9.06-8.95h33.3a9,9,0,0,1,9.05,8.95v26.86c0,8.19,1.38,11.77,6.21,16.21,3.46,3.16,8.23,3.72,10.67,3.78l.63,0h33.3a9,9,0,0,1,9.06,9V1028a9,9,0,0,1-9.06,9H435a9,9,0,0,1-9.05-9v-15.43c0-6.49,0-11.6-7.25-20.47-6-8-14.63-10.35-20.46-10.91h-23.1A9,9,0,0,1,366,972.18Z"/><path class="cls-1" d="M365.39,1032.69v-30.87a9,9,0,0,1,9.05-9h33.3a9,9,0,0,1,9.06,9v30.87a9,9,0,0,1-9.06,9h-33.3A9,9,0,0,1,365.39,1032.69Z"/><path class="cls-2" d="M347.88,992.87a9,9,0,0,1,9.05,9v26.86c0,8.19,1.38,11.77,6.21,16.21,3.46,3.16,8.23,3.72,10.67,3.78l.63,0h33.3a9,9,0,0,1,9.06,8.95v30.87a9,9,0,0,1-9.06,9h-33.3a9,9,0,0,1-9.05-9V1073c0-6.49,0-11.6-7.25-20.47-6.05-8-14.63-10.35-20.46-10.91h-23.1a9,9,0,0,1-9.06-9v-30.87a9,9,0,0,1,9.06-9h33.3m0-2h-33.3a11,11,0,0,0-11.06,11v30.87a11,11,0,0,0,11.06,11h23c5.62.56,13.44,2.77,19,10.12l0,0,0,0c6.8,8.32,6.8,12.88,6.8,19.2v15.43a11,11,0,0,0,11.05,11h33.3a11,11,0,0,0,11.06-11v-30.87a11,11,0,0,0-11.06-10.95h-33.3a5.07,5.07,0,0,0-.55,0h-.11c-2.25-.06-6.36-.58-9.29-3.25-4.42-4.06-5.56-7.09-5.56-14.74v-26.86a11,11,0,0,0-11.05-11Z"/><path class="cls-1" d="M287.37,932.36a9,9,0,0,1,9.05,9v30.87a9,9,0,0,1-9.05,8.95h-33.3a9,9,0,0,1-9.06-8.95V941.32a9,9,0,0,1,9.06-9h33.3m0-2h-33.3a11,11,0,0,0-11.06,11v30.87a11,11,0,0,0,11.06,10.95h33.3a11,11,0,0,0,11.05-10.95V941.32a11,11,0,0,0-11.05-11Z"/><path class="cls-2" d="M356.29,941.32v30.87a9,9,0,0,1-9.06,8.95h-33.3a9,9,0,0,1-9.05-8.95V945.33c0-8.19-1.38-11.77-6.21-16.21-3.46-3.16-8.23-3.72-10.67-3.78l-.63,0h-33.3a9,9,0,0,1-9.06-9V885.55a9,9,0,0,1,9.06-8.95h33.3a9,9,0,0,1,9.05,8.95V901c0,6.49,0,11.6,7.25,20.47,6.05,8,14.63,10.35,20.46,10.91h23.1A9,9,0,0,1,356.29,941.32Z"/><path class="cls-1" d="M356.93,880.81v30.87a9,9,0,0,1-9.05,9h-33.3a9,9,0,0,1-9.06-9V880.81a9,9,0,0,1,9.06-9h33.3A9,9,0,0,1,356.93,880.81Z"/><path class="cls-2" d="M347.88,816.09a9,9,0,0,1,9.05,8.95v15.43c0,6.49,0,11.6,7.25,20.47,6.05,8,14.63,10.35,20.46,10.91h23.1a9,9,0,0,1,9.06,9v30.87a9,9,0,0,1-9.06,9h-33.3a9,9,0,0,1-9.05-9V884.82c0-8.19-1.38-11.77-6.21-16.21-3.46-3.16-8.23-3.72-10.67-3.78l-.63,0h-33.3a9,9,0,0,1-9.06-9V825a9,9,0,0,1,9.06-8.95h33.3m0-2h-33.3A11,11,0,0,0,303.52,825v30.87a11,11,0,0,0,11.06,11h33.3l.55,0h.11c2.25.07,6.36.59,9.29,3.26,4.41,4.06,5.56,7.09,5.56,14.73v26.86a11,11,0,0,0,11.05,11h33.3a11,11,0,0,0,11.06-11V880.81a11,11,0,0,0-11.06-11h-23c-5.63-.55-13.44-2.76-19-10.11l0,0,0,0c-6.8-8.32-6.8-12.89-6.8-19.21V825a11,11,0,0,0-11.05-10.95Z"/><path class="cls-1" d="M290.66,762.79a9,9,0,0,1,9.06,9v30.87a9,9,0,0,1-9.06,9h-33.3a9,9,0,0,1-9.05-9V771.74a9,9,0,0,1,9.05-9h33.3m0-2h-33.3a11,11,0,0,0-11.05,11v30.87a11,11,0,0,0,11.05,11h33.3a11,11,0,0,0,11.06-11V771.74a11,11,0,0,0-11.06-11Z"/><path class="cls-2" d="M188.44,802.61V771.74a9,9,0,0,1,9.06-9h33.3a9,9,0,0,1,9,9V798.6c0,8.19,1.38,11.77,6.21,16.21,3.46,3.16,8.23,3.72,10.67,3.78l.63,0h33.3a9,9,0,0,1,9.06,9v30.87a9,9,0,0,1-9.06,9h-33.3a9,9,0,0,1-9.05-9V843c0-6.49,0-11.6-7.25-20.47-6.05-8.05-14.63-10.35-20.46-10.91H197.5A9,9,0,0,1,188.44,802.61Z"/><path class="cls-1" d="M187.8,863.12V832.25a9,9,0,0,1,9-9h33.3a9,9,0,0,1,9.06,9v30.87a9,9,0,0,1-9.06,9h-33.3A9,9,0,0,1,187.8,863.12Z"/><path class="cls-2" d="M170.29,823.3a9,9,0,0,1,9.05,9v26.86c0,8.19,1.38,11.77,6.21,16.21,3.46,3.16,8.23,3.72,10.67,3.78l.63,0h33.3a9,9,0,0,1,9.06,8.95v30.87a9,9,0,0,1-9.06,9h-33.3a9,9,0,0,1-9-9V903.46c0-6.49,0-11.6-7.25-20.47-6.05-8-14.63-10.35-20.46-10.91H137a9,9,0,0,1-9.06-9V832.25a9,9,0,0,1,9.06-9h33.3m0-2H137a11,11,0,0,0-11.06,11v30.87a11,11,0,0,0,11.06,11h23c5.62.56,13.44,2.77,19,10.11l0,0,0,0c6.8,8.32,6.8,12.89,6.8,19.21v15.43a11,11,0,0,0,11,11h33.3a11,11,0,0,0,11.06-11V888a11,11,0,0,0-11.06-10.95h-33.3l-.55,0h-.11c-2.25-.07-6.36-.58-9.29-3.26-4.42-4.06-5.56-7.09-5.56-14.73V832.25a11,11,0,0,0-11.05-11Z"/><path class="cls-1" d="M946.06,1315.16a9,9,0,0,1,9.05,9V1355a9,9,0,0,1-9.05,9h-33.3a9,9,0,0,1-9.06-9v-30.87a9,9,0,0,1,9.06-9h33.3m0-2h-33.3a11,11,0,0,0-11.06,11V1355a11,11,0,0,0,11.06,11h33.3a11,11,0,0,0,11.05-11v-30.87a11,11,0,0,0-11.05-11Z"/><path class="cls-2" d="M1015,1324.12V1355a9,9,0,0,1-9.06,9h-33.3a9,9,0,0,1-9-9v-26.86c0-8.19-1.38-11.77-6.21-16.21-3.46-3.16-8.23-3.72-10.67-3.78l-.63,0h-33.3a9,9,0,0,1-9.06-9v-30.87a9,9,0,0,1,9.06-8.95h33.3a9,9,0,0,1,9.05,8.95v15.43c0,6.49,0,11.6,7.25,20.47,6,8,14.63,10.35,20.46,10.91h23.1A9,9,0,0,1,1015,1324.12Z"/><path class="cls-1" d="M1015.62,1263.61v30.87a9,9,0,0,1-9,9h-33.3a9,9,0,0,1-9.06-9v-30.87a9,9,0,0,1,9.06-9h33.3A9,9,0,0,1,1015.62,1263.61Z"/><path class="cls-2" d="M1006.57,1198.89a9,9,0,0,1,9,8.95v15.43c0,6.49,0,11.6,7.25,20.47,6.05,8,14.63,10.35,20.46,10.91h23.1a9,9,0,0,1,9.06,9v30.87a9,9,0,0,1-9.06,9h-33.3a9,9,0,0,1-9.05-9v-26.86c0-8.19-1.38-11.77-6.21-16.21-3.46-3.16-8.23-3.72-10.67-3.78l-.63,0h-33.3a9,9,0,0,1-9.06-9v-30.87a9,9,0,0,1,9.06-8.95h33.3m0-2h-33.3a11,11,0,0,0-11.06,10.95v30.87a11,11,0,0,0,11.06,11h33.3l.55,0h.11c2.25.07,6.37.58,9.3,3.26,4.41,4.06,5.55,7.09,5.55,14.73v26.86a11,11,0,0,0,11.05,11h33.3a11,11,0,0,0,11.06-11v-30.87a11,11,0,0,0-11.06-11h-23c-5.62-.56-13.44-2.77-19-10.11l0,0,0,0c-6.8-8.31-6.8-12.88-6.8-19.2v-15.43a11,11,0,0,0-11-10.95Z"/><path class="cls-1" d="M949.36,1145.59a9,9,0,0,1,9.06,9v30.87a9,9,0,0,1-9.06,9h-33.3a9,9,0,0,1-9-9v-30.87a9,9,0,0,1,9-9h33.3m0-2h-33.3a11,11,0,0,0-11,11v30.87a11,11,0,0,0,11,11h33.3a11,11,0,0,0,11.06-11v-30.87a11,11,0,0,0-11.06-11Z"/><path class="cls-2" d="M847.14,1185.41v-30.87a9,9,0,0,1,9.06-9h33.3a9,9,0,0,1,9,9v26.86c0,8.19,1.38,11.77,6.21,16.21,3.46,3.16,8.23,3.72,10.67,3.78l.63,0h33.3a9,9,0,0,1,9.06,9v30.87a9,9,0,0,1-9.06,9h-33.3a9,9,0,0,1-9-9v-15.43c0-6.49,0-11.6-7.25-20.47-6-8-14.63-10.35-20.46-10.91H856.2A9,9,0,0,1,847.14,1185.41Z"/><path class="cls-1" d="M846.5,1245.92v-30.87a9,9,0,0,1,9-9h33.3a9,9,0,0,1,9.06,9v30.87a9,9,0,0,1-9.06,9h-33.3A9,9,0,0,1,846.5,1245.92Z"/><path class="cls-2" d="M829,1206.1a9,9,0,0,1,9,9v26.86c0,8.19,1.38,11.77,6.21,16.21,3.46,3.16,8.23,3.72,10.67,3.78l.63,0h33.3a9,9,0,0,1,9.06,9v30.87a9,9,0,0,1-9.06,9h-33.3a9,9,0,0,1-9-9v-15.43c0-6.49,0-11.6-7.25-20.47-6-8-14.63-10.35-20.46-10.91h-23.1a9,9,0,0,1-9.06-9v-30.87a9,9,0,0,1,9.06-9H829m0-2h-33.3a11,11,0,0,0-11.06,11v30.87a11,11,0,0,0,11.06,11h23c5.62.55,13.44,2.76,19,10.11l0,0,0,0c6.8,8.32,6.8,12.89,6.8,19.21v15.43a11,11,0,0,0,11,11h33.3a11,11,0,0,0,11.06-11v-30.87a11,11,0,0,0-11.06-11h-33.3l-.55,0h-.11c-2.25-.06-6.37-.58-9.3-3.25-4.41-4.06-5.55-7.09-5.55-14.73v-26.86a11,11,0,0,0-11-11Z"/><path class="cls-1" d="M768.47,1145.59a9,9,0,0,1,9.06,9v30.87a9,9,0,0,1-9.06,8.95h-33.3a9,9,0,0,1-9.06-8.95v-30.87a9,9,0,0,1,9.06-9h33.3m0-2h-33.3a11,11,0,0,0-11.06,11v30.87a11,11,0,0,0,11.06,10.95h33.3a11,11,0,0,0,11.06-10.95v-30.87a11,11,0,0,0-11.06-11Z"/><path class="cls-2" d="M837.39,1154.55v30.87a9,9,0,0,1-9.06,8.95H795a9,9,0,0,1-9-8.95v-26.86c0-8.19-1.39-11.77-6.22-16.21-3.45-3.16-8.23-3.72-10.67-3.78-.21,0-.41,0-.62,0H735.17a9,9,0,0,1-9.06-8.95v-30.87a9,9,0,0,1,9.06-9h33.31a9,9,0,0,1,9,9v15.43c0,6.49,0,11.6,7.25,20.47,6.06,8,14.63,10.35,20.47,10.91h23.09A9,9,0,0,1,837.39,1154.55Z"/><path class="cls-1" d="M838,1094v30.87a9,9,0,0,1-9,8.95h-33.3a9,9,0,0,1-9.06-8.95V1094a9,9,0,0,1,9.06-9H829A9,9,0,0,1,838,1094Z"/><path class="cls-2" d="M829,1029.31a9,9,0,0,1,9,9v15.43c0,6.49,0,11.6,7.25,20.47,6.05,8,14.63,10.35,20.46,10.91h23.1a9,9,0,0,1,9.06,9v30.87a9,9,0,0,1-9.06,8.95h-33.3a9,9,0,0,1-9-8.95V1098c0-8.19-1.38-11.77-6.21-16.21-3.46-3.16-8.23-3.72-10.67-3.78l-.63,0h-33.3a9,9,0,0,1-9.06-8.95v-30.87a9,9,0,0,1,9.06-9H829m0-2h-33.3a11,11,0,0,0-11.06,11v30.87a11,11,0,0,0,11.06,10.95H829l.54,0h.12c2.24.06,6.36.58,9.29,3.25,4.41,4.06,5.56,7.09,5.56,14.73v26.86a11,11,0,0,0,11,10.95h33.3a11,11,0,0,0,11.06-10.95V1094a11,11,0,0,0-11.06-11h-23c-5.62-.55-13.44-2.76-19-10.11l0,0,0,0C840,1064.58,840,1060,840,1053.69v-15.43a11,11,0,0,0-11-11Z"/><path class="cls-1" d="M771.77,976a9,9,0,0,1,9.06,9v30.87a9,9,0,0,1-9.06,9h-33.3a9,9,0,0,1-9.05-9V985a9,9,0,0,1,9.05-9h33.3m0-2h-33.3a11,11,0,0,0-11.05,11v30.87a11,11,0,0,0,11.05,11h33.3a11,11,0,0,0,11.06-11V985a11,11,0,0,0-11.06-11Z"/><path class="cls-2" d="M669.55,1015.83V985a9,9,0,0,1,9.06-9h33.3a9,9,0,0,1,9.05,9v26.86c0,8.19,1.38,11.77,6.21,16.21,3.46,3.16,8.23,3.72,10.67,3.78l.63,0h33.3a9,9,0,0,1,9.06,9v30.87a9,9,0,0,1-9.06,9h-33.3a9,9,0,0,1-9.05-9v-15.43c0-6.49,0-11.6-7.25-20.47-6-8-14.63-10.35-20.46-10.91h-23.1A9,9,0,0,1,669.55,1015.83Z"/><path class="cls-1" d="M668.91,1076.34v-30.87a9,9,0,0,1,9.05-9h33.3a9,9,0,0,1,9.06,9v30.87a9,9,0,0,1-9.06,9H678A9,9,0,0,1,668.91,1076.34Z"/><path class="cls-2" d="M651.4,1036.52a9,9,0,0,1,9.05,9v26.86c0,8.19,1.38,11.77,6.21,16.21,3.46,3.16,8.23,3.72,10.67,3.78l.63,0h33.3a9,9,0,0,1,9.06,9v30.87a9,9,0,0,1-9.06,9H678a9,9,0,0,1-9.05-9v-15.43c0-6.49,0-11.6-7.25-20.47-6-8-14.63-10.35-20.46-10.91H618.1a9,9,0,0,1-9.06-9v-30.87a9,9,0,0,1,9.06-9h33.3m0-2H618.1a11,11,0,0,0-11.06,11v30.87a11,11,0,0,0,11.06,11h23c5.62.56,13.44,2.77,19,10.11l0,0,0,0c6.8,8.31,6.8,12.88,6.8,19.2v15.43a11,11,0,0,0,11.05,11h33.3a11,11,0,0,0,11.06-11v-30.87a11,11,0,0,0-11.06-11H678l-.55,0h-.11c-2.25-.07-6.37-.58-9.29-3.26-4.42-4-5.56-7.09-5.56-14.73v-26.86a11,11,0,0,0-11.05-11Z"/><path class="cls-1" d="M590.89,976a9,9,0,0,1,9.05,9v30.87a9,9,0,0,1-9.05,8.95h-33.3a9,9,0,0,1-9.06-8.95V985a9,9,0,0,1,9.06-9h33.3m0-2h-33.3a11,11,0,0,0-11.06,11v30.87a11,11,0,0,0,11.06,10.95h33.3a11,11,0,0,0,11.05-10.95V985a11,11,0,0,0-11.05-11Z"/><path class="cls-2" d="M659.81,985v30.87a9,9,0,0,1-9.06,8.95h-33.3a9,9,0,0,1-9.05-8.95V989c0-8.19-1.38-11.77-6.21-16.21-3.46-3.16-8.23-3.72-10.67-3.78l-.63,0h-33.3a9,9,0,0,1-9.06-8.95V929.2a9,9,0,0,1,9.06-9h33.3a9,9,0,0,1,9.05,9v15.43c0,6.49,0,11.6,7.25,20.47,6,8,14.63,10.35,20.46,10.91h23.1A9,9,0,0,1,659.81,985Z"/><path class="cls-1" d="M660.45,924.46v30.87a9,9,0,0,1-9.05,8.95H618.1a9,9,0,0,1-9.06-8.95V924.46a9,9,0,0,1,9.06-9h33.3A9,9,0,0,1,660.45,924.46Z"/><path class="cls-2" d="M651.4,859.74a9,9,0,0,1,9.05,9v15.43c0,6.49,0,11.6,7.25,20.47,6,8,14.63,10.35,20.46,10.91h23.1a9,9,0,0,1,9.06,9v30.87a9,9,0,0,1-9.06,8.95H678a9,9,0,0,1-9.05-8.95V928.47c0-8.19-1.38-11.77-6.21-16.21-3.46-3.16-8.23-3.72-10.67-3.78l-.63,0H618.1a9,9,0,0,1-9.06-9V868.69a9,9,0,0,1,9.06-9h33.3m0-2H618.1a11,11,0,0,0-11.06,11v30.87a11,11,0,0,0,11.06,11h33.3l.54,0h.12c2.24.07,6.36.58,9.29,3.26,4.41,4,5.56,7.08,5.56,14.73v26.86A11,11,0,0,0,678,966.28h33.3a11,11,0,0,0,11.06-10.95V924.46a11,11,0,0,0-11.06-11h-23c-5.62-.56-13.43-2.77-19-10.11l0,0,0,0c-6.8-8.31-6.8-12.88-6.8-19.2V868.69a11,11,0,0,0-11.05-11Z"/><path class="cls-1" d="M594.18,806.43a9,9,0,0,1,9.06,9v30.87a9,9,0,0,1-9.06,9h-33.3a9,9,0,0,1-9-9V815.38a9,9,0,0,1,9-9h33.3m0-2h-33.3a11,11,0,0,0-11,11v30.87a11,11,0,0,0,11,11h33.3a11,11,0,0,0,11.06-11V815.38a11,11,0,0,0-11.06-11Z"/><path class="cls-2" d="M492,846.25V815.38a9,9,0,0,1,9.06-9h33.3a9,9,0,0,1,9,9v26.86c0,8.19,1.38,11.77,6.21,16.21,3.46,3.16,8.23,3.72,10.67,3.78l.63,0h33.3a9,9,0,0,1,9.06,8.95V902a9,9,0,0,1-9.06,9h-33.3a9,9,0,0,1-9-9V886.59c0-6.49,0-11.6-7.25-20.47-6.05-8-14.63-10.35-20.46-10.91H501A9,9,0,0,1,492,846.25Z"/><path class="cls-1" d="M491.32,906.76V875.89a9,9,0,0,1,9.05-8.95h33.3a9,9,0,0,1,9.06,8.95v30.87a9,9,0,0,1-9.06,9h-33.3A9,9,0,0,1,491.32,906.76Z"/><path class="cls-2" d="M473.81,866.94a9,9,0,0,1,9.05,8.95v26.86c0,8.19,1.38,11.77,6.21,16.21,3.46,3.16,8.23,3.72,10.67,3.78l.63,0h33.3a9,9,0,0,1,9.06,8.95v30.87a9,9,0,0,1-9.06,9h-33.3a9,9,0,0,1-9.05-9V947.1c0-6.49,0-11.6-7.25-20.47-6.05-8-14.63-10.35-20.46-10.91h-23.1a9,9,0,0,1-9.06-9V875.89a9,9,0,0,1,9.06-8.95h33.3m0-2h-33.3a11,11,0,0,0-11.06,10.95v30.87a11,11,0,0,0,11.06,11h23c5.62.56,13.44,2.77,19,10.12l0,0,0,0c6.8,8.32,6.8,12.88,6.8,19.2v15.43a11,11,0,0,0,11.05,11h33.3a11,11,0,0,0,11.06-11V931.66a11,11,0,0,0-11.06-10.95h-33.3a5.07,5.07,0,0,0-.55,0h-.11c-2.25-.06-6.36-.58-9.29-3.25-4.42-4.06-5.56-7.09-5.56-14.74V875.89a11,11,0,0,0-11.05-10.95Z"/><path class="cls-1" d="M413.3,806.43a9,9,0,0,1,9.05,9v30.87a9,9,0,0,1-9.05,9H380a9,9,0,0,1-9.06-9V815.39a9,9,0,0,1,9.06-9h33.3m0-2H380a11,11,0,0,0-11.06,11v30.87a11,11,0,0,0,11.06,11h33.3a11,11,0,0,0,11.05-11V815.39a11,11,0,0,0-11.05-11Z"/><path class="cls-2" d="M482.22,815.39v30.87a9,9,0,0,1-9.06,9h-33.3a9,9,0,0,1-9.05-9V819.4c0-8.19-1.38-11.77-6.21-16.21-3.46-3.16-8.23-3.72-10.67-3.78l-.63,0H380a9,9,0,0,1-9.06-9V759.62a9,9,0,0,1,9.06-9h33.3a9,9,0,0,1,9.05,9v15.43c0,6.49,0,11.6,7.25,20.47,6,8.05,14.63,10.35,20.46,10.91h23.1A9,9,0,0,1,482.22,815.39Z"/><path class="cls-1" d="M482.86,754.88v30.87a9,9,0,0,1-9.05,9h-33.3a9,9,0,0,1-9.06-9V754.88a9,9,0,0,1,9.06-9h33.3A9,9,0,0,1,482.86,754.88Z"/><path class="cls-2" d="M473.81,690.16a9,9,0,0,1,9.05,9v15.43c0,6.49,0,11.6,7.25,20.47,6.05,8,14.63,10.35,20.46,10.91h23.1a9,9,0,0,1,9.06,9v30.87a9,9,0,0,1-9.06,9h-33.3a9,9,0,0,1-9.05-9V758.89c0-8.19-1.38-11.77-6.21-16.21-3.46-3.16-8.23-3.72-10.67-3.78l-.63,0h-33.3a9,9,0,0,1-9.06-8.95V699.11a9,9,0,0,1,9.06-9h33.3m0-2h-33.3a11,11,0,0,0-11.06,11V730a11,11,0,0,0,11.06,10.95h33.3l.55,0h.11c2.25.07,6.36.59,9.29,3.26,4.41,4.06,5.56,7.09,5.56,14.73v26.86a11,11,0,0,0,11.05,11h33.3a11,11,0,0,0,11.06-11V754.88a11,11,0,0,0-11.06-11h-23c-5.63-.55-13.44-2.76-19-10.11l0,0,0,0c-6.8-8.32-6.8-12.89-6.8-19.21V699.11a11,11,0,0,0-11.05-11Z"/><path class="cls-1" d="M416.59,636.86a9,9,0,0,1,9.06,8.95v30.87a9,9,0,0,1-9.06,9h-33.3a9,9,0,0,1-9.05-9V645.81a9,9,0,0,1,9.05-8.95h33.3m0-2h-33.3a11,11,0,0,0-11.05,10.95v30.87a11,11,0,0,0,11.05,11h33.3a11,11,0,0,0,11.06-11V645.81a11,11,0,0,0-11.06-10.95Z"/><path class="cls-2" d="M314.37,676.68V645.81a9,9,0,0,1,9.06-8.95h33.3a9,9,0,0,1,9,8.95v26.86c0,8.19,1.38,11.77,6.21,16.21,3.46,3.16,8.23,3.72,10.67,3.78l.63,0h33.3a9,9,0,0,1,9.06,9v30.87a9,9,0,0,1-9.06,8.95h-33.3a9,9,0,0,1-9.05-8.95V717c0-6.49,0-11.6-7.25-20.47-6.05-8-14.63-10.35-20.46-10.91h-23.1A9,9,0,0,1,314.37,676.68Z"/><path class="cls-1" d="M313.73,737.19V706.32a9,9,0,0,1,9-9h33.3a9,9,0,0,1,9.06,9v30.87a9,9,0,0,1-9.06,9h-33.3A9,9,0,0,1,313.73,737.19Z"/><path class="cls-2" d="M296.22,697.37a9,9,0,0,1,9,9v26.86c0,8.19,1.38,11.77,6.21,16.21,3.46,3.16,8.23,3.72,10.67,3.78l.63,0h33.3a9,9,0,0,1,9.06,9V793a9,9,0,0,1-9.06,8.95h-33.3a9,9,0,0,1-9-8.95V777.53c0-6.49,0-11.6-7.25-20.47-6.05-8-14.63-10.35-20.46-10.91h-23.1a9,9,0,0,1-9.06-9V706.32a9,9,0,0,1,9.06-9h33.3m0-2h-33.3a11,11,0,0,0-11.06,11v30.87a11,11,0,0,0,11.06,11h23c5.62.56,13.44,2.77,19,10.11l0,0,0,0c6.8,8.32,6.8,12.89,6.8,19.21V793a11,11,0,0,0,11,10.95h33.3A11,11,0,0,0,367.14,793V762.09a11,11,0,0,0-11.06-11h-33.3l-.55,0h-.11c-2.25-.07-6.36-.58-9.29-3.26-4.42-4.06-5.56-7.09-5.56-14.73V706.32a11,11,0,0,0-11-11Z"/><path class="cls-1" d="M1072,1189.23a9,9,0,0,1,9,9v30.87a9,9,0,0,1-9,9h-33.3a9,9,0,0,1-9.06-9v-30.87a9,9,0,0,1,9.06-9H1072m0-2h-33.3a11,11,0,0,0-11.06,11v30.87a11,11,0,0,0,11.06,11H1072a11,11,0,0,0,11-11v-30.87a11,11,0,0,0-11-11Z"/><path class="cls-2" d="M1140.91,1198.19v30.87a9,9,0,0,1-9.06,9h-33.3a9,9,0,0,1-9-9V1202.2c0-8.19-1.38-11.77-6.21-16.21-3.46-3.16-8.23-3.72-10.67-3.78l-.63,0h-33.3a9,9,0,0,1-9.06-9v-30.87a9,9,0,0,1,9.06-9H1072a9,9,0,0,1,9,9v15.43c0,6.49,0,11.6,7.25,20.47,6,8,14.63,10.35,20.46,10.91h23.1A9,9,0,0,1,1140.91,1198.19Z"/><path class="cls-1" d="M1141.55,1137.68v30.87a9,9,0,0,1-9,9h-33.3a9,9,0,0,1-9.06-9v-30.87a9,9,0,0,1,9.06-9h33.3A9,9,0,0,1,1141.55,1137.68Z"/><path class="cls-2" d="M1132.5,1073a9,9,0,0,1,9,9v15.43c0,6.49,0,11.6,7.25,20.47,6,8,14.63,10.35,20.46,10.91h23.1a9,9,0,0,1,9.06,9v30.87a9,9,0,0,1-9.06,9h-33.3a9,9,0,0,1-9-9v-26.86c0-8.19-1.38-11.77-6.21-16.21-3.46-3.16-8.23-3.72-10.67-3.78l-.63,0h-33.3a9,9,0,0,1-9.06-9v-30.87a9,9,0,0,1,9.06-9h33.3m0-2h-33.3a11,11,0,0,0-11.06,11v30.87a11,11,0,0,0,11.06,11h33.3l.55,0h.11c2.25.07,6.37.58,9.3,3.26,4.41,4.06,5.55,7.09,5.55,14.73v26.86a11,11,0,0,0,11,11h33.3a11,11,0,0,0,11.06-11v-30.87a11,11,0,0,0-11.06-11h-23c-5.62-.56-13.44-2.77-19-10.11l0,0,0,0c-6.8-8.31-6.8-12.88-6.8-19.2v-15.43a11,11,0,0,0-11-11Z"/><path class="cls-1" d="M1075.29,1019.66a9,9,0,0,1,9.06,8.95v30.87a9,9,0,0,1-9.06,9H1042a9,9,0,0,1-9-9v-30.87a9,9,0,0,1,9-8.95h33.3m0-2H1042a11,11,0,0,0-11,10.95v30.87a11,11,0,0,0,11,11h33.3a11,11,0,0,0,11.06-11v-30.87a11,11,0,0,0-11.06-10.95Z"/><path class="cls-2" d="M973.07,1059.48v-30.87a9,9,0,0,1,9.06-8.95h33.3a9,9,0,0,1,9.05,8.95v26.86c0,8.19,1.38,11.77,6.21,16.21,3.46,3.16,8.23,3.72,10.67,3.78l.63,0h33.3a9,9,0,0,1,9.06,9v30.87a9,9,0,0,1-9.06,9H1042a9,9,0,0,1-9-9v-15.43c0-6.49,0-11.6-7.25-20.47-6.05-8-14.63-10.35-20.46-10.91h-23.1A9,9,0,0,1,973.07,1059.48Z"/><path class="cls-1" d="M972.43,1120v-30.87a9,9,0,0,1,9.05-8.95h33.3a9,9,0,0,1,9.06,8.95V1120a9,9,0,0,1-9.06,9h-33.3A9,9,0,0,1,972.43,1120Z"/><path class="cls-2" d="M954.92,1080.17a9,9,0,0,1,9.05,8.95V1116c0,8.19,1.38,11.77,6.21,16.21,3.46,3.16,8.23,3.72,10.67,3.78l.63,0h33.3a9,9,0,0,1,9.06,9v30.87a9,9,0,0,1-9.06,9h-33.3a9,9,0,0,1-9.05-9v-15.43c0-6.49,0-11.6-7.25-20.47-6-8-14.63-10.35-20.46-10.91h-23.1a9,9,0,0,1-9.06-9v-30.87a9,9,0,0,1,9.06-8.95h33.3m0-2h-33.3a11,11,0,0,0-11.06,10.95V1120a11,11,0,0,0,11.06,11h23c5.62.55,13.44,2.76,19,10.11l0,0,0,0c6.8,8.32,6.8,12.89,6.8,19.21v15.43a11,11,0,0,0,11.05,11h33.3a11,11,0,0,0,11.06-11v-30.87a11,11,0,0,0-11.06-11h-33.3l-.55,0h-.11c-2.25-.06-6.37-.58-9.3-3.25-4.41-4.06-5.55-7.09-5.55-14.73v-26.86a11,11,0,0,0-11.05-10.95Z"/><path class="cls-1" d="M894.41,1019.66a9,9,0,0,1,9,8.95v30.87a9,9,0,0,1-9,9h-33.3a9,9,0,0,1-9.06-9v-30.87a9,9,0,0,1,9.06-8.95h33.3m0-2h-33.3a11,11,0,0,0-11.06,10.95v30.87a11,11,0,0,0,11.06,11h33.3a11,11,0,0,0,11-11v-30.87a11,11,0,0,0-11-10.95Z"/><path class="cls-2" d="M963.32,1028.62v30.87a9,9,0,0,1-9.06,9H921a9,9,0,0,1-9.05-9v-26.86c0-8.19-1.39-11.77-6.22-16.21-3.45-3.16-8.22-3.72-10.67-3.78-.21,0-.41,0-.62,0h-33.3a9,9,0,0,1-9.07-8.95V972.85a9,9,0,0,1,9.07-9h33.3a9,9,0,0,1,9,9v15.43c0,6.49,0,11.6,7.25,20.47,6.06,8,14.63,10.35,20.47,10.91h23.09A9,9,0,0,1,963.32,1028.62Z"/><path class="cls-1" d="M964,968.1V999a9,9,0,0,1-9.05,8.95h-33.3a9,9,0,0,1-9.06-8.95V968.1a9,9,0,0,1,9.06-9h33.3A9,9,0,0,1,964,968.1Z"/><path class="cls-2" d="M954.92,903.38a9,9,0,0,1,9.05,9v15.43c0,6.49,0,11.6,7.25,20.47,6,8,14.63,10.35,20.46,10.91h23.1a9,9,0,0,1,9.06,9V999a9,9,0,0,1-9.06,8.95h-33.3a9,9,0,0,1-9.05-8.95V972.11c0-8.19-1.38-11.77-6.21-16.21-3.46-3.16-8.23-3.72-10.67-3.78l-.63,0h-33.3a9,9,0,0,1-9.06-8.95V912.33a9,9,0,0,1,9.06-9h33.3m0-2h-33.3a11,11,0,0,0-11.06,11V943.2a11,11,0,0,0,11.06,10.95h33.3l.54,0h.12c2.24.06,6.36.58,9.29,3.25,4.41,4.06,5.56,7.09,5.56,14.73V999a11,11,0,0,0,11.05,10.95h33.3A11,11,0,0,0,1025.84,999V968.1a11,11,0,0,0-11.06-11h-23c-5.62-.55-13.44-2.76-19-10.11l0,0,0,0C966,938.65,966,934.08,966,927.76V912.33a11,11,0,0,0-11.05-11Z"/><path class="cls-1" d="M897.7,850.08a9,9,0,0,1,9.06,8.95V889.9a9,9,0,0,1-9.06,9H864.4a9,9,0,0,1-9-9V859a9,9,0,0,1,9-8.95h33.3m0-2H864.4a11,11,0,0,0-11,10.95V889.9a11,11,0,0,0,11,11h33.3a11,11,0,0,0,11.06-11V859a11,11,0,0,0-11.06-10.95Z"/><path class="cls-2" d="M795.48,889.9V859a9,9,0,0,1,9.06-8.95h33.3a9,9,0,0,1,9,8.95v26.86c0,8.19,1.38,11.77,6.21,16.21,3.46,3.16,8.23,3.72,10.67,3.78l.63,0h33.3a9,9,0,0,1,9.06,8.95v30.87a9,9,0,0,1-9.06,9H864.4a9,9,0,0,1-9-9V930.24c0-6.49,0-11.6-7.25-20.47-6.05-8-14.63-10.35-20.46-10.91h-23.1A9,9,0,0,1,795.48,889.9Z"/><path class="cls-1" d="M794.84,950.41V919.54a9,9,0,0,1,9-8.95h33.3a9,9,0,0,1,9.06,8.95v30.87a9,9,0,0,1-9.06,9h-33.3A9,9,0,0,1,794.84,950.41Z"/><path class="cls-2" d="M777.33,910.59a9,9,0,0,1,9,8.95V946.4c0,8.19,1.38,11.77,6.21,16.21,3.46,3.16,8.23,3.72,10.67,3.78l.63,0h33.3a9,9,0,0,1,9.06,8.95v30.87a9,9,0,0,1-9.06,9h-33.3a9,9,0,0,1-9-9V990.75c0-6.49,0-11.6-7.25-20.47-6.05-8-14.63-10.35-20.46-10.91H744a9,9,0,0,1-9.06-9V919.54a9,9,0,0,1,9.06-8.95h33.3m0-2H744A11,11,0,0,0,733,919.54v30.87a11,11,0,0,0,11.06,11h23c5.62.56,13.44,2.77,19,10.11l0,0,0,0c6.8,8.31,6.8,12.88,6.8,19.2v15.43a11,11,0,0,0,11,11h33.3a11,11,0,0,0,11.06-11V975.31a11,11,0,0,0-11.06-10.95h-33.3l-.55,0h-.11c-2.25-.07-6.37-.58-9.29-3.26-4.42-4.06-5.56-7.09-5.56-14.73V919.54a11,11,0,0,0-11-10.95Z"/><path class="cls-1" d="M716.82,850.08a9,9,0,0,1,9,9v30.87a9,9,0,0,1-9,9h-33.3a9,9,0,0,1-9.06-9V859a9,9,0,0,1,9.06-9h33.3m0-2h-33.3a11,11,0,0,0-11.06,11v30.87a11,11,0,0,0,11.06,11h33.3a11,11,0,0,0,11-11V859a11,11,0,0,0-11-11Z"/><path class="cls-2" d="M785.74,859v30.87a9,9,0,0,1-9.06,9h-33.3a9,9,0,0,1-9-9V863.05c0-8.19-1.38-11.77-6.21-16.21-3.46-3.16-8.23-3.72-10.67-3.78l-.63,0h-33.3a9,9,0,0,1-9.06-9V803.27a9,9,0,0,1,9.06-8.95h33.3a9,9,0,0,1,9,8.95V818.7c0,6.49,0,11.6,7.25,20.47,6,8.05,14.63,10.35,20.46,10.91h23.1A9,9,0,0,1,785.74,859Z"/><path class="cls-1" d="M786.38,798.53V829.4a9,9,0,0,1-9,9H744a9,9,0,0,1-9.06-9V798.53a9,9,0,0,1,9.06-9h33.3A9,9,0,0,1,786.38,798.53Z"/><path class="cls-2" d="M777.33,733.81a9,9,0,0,1,9,9v15.43c0,6.49,0,11.6,7.25,20.47,6,8.05,14.63,10.35,20.46,10.91h23.1a9,9,0,0,1,9.06,9V829.4a9,9,0,0,1-9.06,9h-33.3a9,9,0,0,1-9-9V802.54c0-8.19-1.38-11.77-6.21-16.21-3.46-3.16-8.23-3.72-10.67-3.78l-.63,0H744a9,9,0,0,1-9.06-9V742.76a9,9,0,0,1,9.06-9h33.3m0-2H744a11,11,0,0,0-11.06,11v30.87a11,11,0,0,0,11.06,11h33.3l.54,0H778c2.24.07,6.36.58,9.29,3.26,4.41,4.05,5.56,7.08,5.56,14.73V829.4a11,11,0,0,0,11,11h33.3a11,11,0,0,0,11.06-11V798.53a11,11,0,0,0-11.06-11h-23c-5.62-.56-13.43-2.77-18.95-10.11l0,0,0,0c-6.8-8.31-6.8-12.88-6.8-19.2V742.76a11,11,0,0,0-11-11Z"/><path class="cls-1" d="M720.11,680.5a9,9,0,0,1,9.06,9v30.87a9,9,0,0,1-9.06,9h-33.3a9,9,0,0,1-9-9V689.45a9,9,0,0,1,9-9h33.3m0-2h-33.3a11,11,0,0,0-11,11v30.87a11,11,0,0,0,11,11h33.3a11,11,0,0,0,11.06-11V689.45a11,11,0,0,0-11.06-11Z"/><path class="cls-2" d="M617.89,720.32V689.45a9,9,0,0,1,9.06-9h33.3a9,9,0,0,1,9,9v26.86c0,8.19,1.38,11.77,6.21,16.21,3.46,3.16,8.23,3.72,10.67,3.78l.63,0h33.3a9,9,0,0,1,9.06,9v30.87a9,9,0,0,1-9.06,8.95h-33.3a9,9,0,0,1-9-8.95V760.66c0-6.49,0-11.6-7.25-20.47-6-8.05-14.63-10.35-20.46-10.91H627A9,9,0,0,1,617.89,720.32Z"/><path class="cls-1" d="M617.25,780.83V750a9,9,0,0,1,9-9h33.3a9,9,0,0,1,9.06,9v30.87a9,9,0,0,1-9.06,9H626.3A9,9,0,0,1,617.25,780.83Z"/><path class="cls-2" d="M599.74,741a9,9,0,0,1,9,9v26.86c0,8.19,1.38,11.77,6.21,16.21,3.46,3.16,8.23,3.72,10.67,3.78l.63,0h33.3a9,9,0,0,1,9.06,9V836.6a9,9,0,0,1-9.06,8.95H626.3a9,9,0,0,1-9-8.95V821.17c0-6.49,0-11.6-7.25-20.47-6-8.05-14.63-10.35-20.46-10.91h-23.1a9,9,0,0,1-9.06-9V750a9,9,0,0,1,9.06-9h33.3m0-2h-33.3a11,11,0,0,0-11.06,11v30.87a11,11,0,0,0,11.06,11h23c5.62.56,13.44,2.77,19,10.12l0,0,0,0c6.8,8.32,6.8,12.88,6.8,19.2V836.6a11,11,0,0,0,11,10.95h33.3a11,11,0,0,0,11.06-10.95V805.73a11,11,0,0,0-11.06-11H626.3a5.07,5.07,0,0,0-.55,0h-.11c-2.25-.06-6.36-.58-9.29-3.25-4.42-4.06-5.56-7.09-5.56-14.74V750a11,11,0,0,0-11-11Z"/><path class="cls-1" d="M539.23,680.5a9,9,0,0,1,9,9v30.87a9,9,0,0,1-9,8.95h-33.3a9,9,0,0,1-9.06-8.95V689.46a9,9,0,0,1,9.06-9h33.3m0-2h-33.3a11,11,0,0,0-11.06,11v30.87a11,11,0,0,0,11.06,10.95h33.3a11,11,0,0,0,11-10.95V689.46a11,11,0,0,0-11-11Z"/><path class="cls-2" d="M608.15,689.46v30.87a9,9,0,0,1-9.06,8.95h-33.3a9,9,0,0,1-9-8.95V693.47c0-8.19-1.38-11.77-6.21-16.21-3.46-3.16-8.23-3.72-10.67-3.78l-.63,0h-33.3a9,9,0,0,1-9.06-9V633.69a9,9,0,0,1,9.06-9h33.3a9,9,0,0,1,9,9v15.43c0,6.49,0,11.6,7.25,20.47,6.05,8,14.63,10.35,20.46,10.91h23.1A9,9,0,0,1,608.15,689.46Z"/><path class="cls-1" d="M608.79,629v30.87a9,9,0,0,1-9,8.95h-33.3a9,9,0,0,1-9.06-8.95V629a9,9,0,0,1,9.06-9h33.3A9,9,0,0,1,608.79,629Z"/><path class="cls-2" d="M599.74,564.23a9,9,0,0,1,9,8.95v15.43c0,6.49,0,11.6,7.25,20.47,6.05,8,14.63,10.35,20.46,10.91h23.1a9,9,0,0,1,9.06,9v30.87a9,9,0,0,1-9.06,8.95H626.3a9,9,0,0,1-9-8.95V633c0-8.19-1.38-11.77-6.21-16.21-3.46-3.16-8.23-3.72-10.67-3.78l-.63,0h-33.3a9,9,0,0,1-9.06-9V573.18a9,9,0,0,1,9.06-8.95h33.3m0-2h-33.3a11,11,0,0,0-11.06,10.95v30.87a11,11,0,0,0,11.06,11h33.3l.55,0h.11c2.25.07,6.36.59,9.29,3.26,4.41,4.06,5.56,7.09,5.56,14.73v26.86a11,11,0,0,0,11,10.95h33.3a11,11,0,0,0,11.06-10.95V629a11,11,0,0,0-11.06-11h-23c-5.63-.55-13.44-2.76-19-10.11l0,0,0,0c-6.8-8.32-6.8-12.89-6.8-19.21V573.18a11,11,0,0,0-11-10.95Z"/><path class="cls-1" d="M542.52,510.93a9,9,0,0,1,9.06,8.95v30.87a9,9,0,0,1-9.06,9h-33.3a9,9,0,0,1-9.05-9V519.88a9,9,0,0,1,9.05-8.95h33.3m0-2h-33.3a11,11,0,0,0-11.05,10.95v30.87a11,11,0,0,0,11.05,11h33.3a11,11,0,0,0,11.06-11V519.88a11,11,0,0,0-11.06-10.95Z"/><path class="cls-2" d="M440.3,550.75V519.88a9,9,0,0,1,9.06-8.95h33.3a9,9,0,0,1,9,8.95v26.86c0,8.19,1.38,11.77,6.21,16.21,3.46,3.16,8.23,3.72,10.67,3.78l.63,0h33.3a9,9,0,0,1,9.06,8.95v30.87a9,9,0,0,1-9.06,9h-33.3a9,9,0,0,1-9.05-9V591.09c0-6.49,0-11.6-7.25-20.47-6.05-8-14.63-10.35-20.46-10.91h-23.1A9,9,0,0,1,440.3,550.75Z"/><path class="cls-1" d="M439.66,611.26V580.39a9,9,0,0,1,9-8.95H482a9,9,0,0,1,9.06,8.95v30.87a9,9,0,0,1-9.06,9h-33.3A9,9,0,0,1,439.66,611.26Z"/><path class="cls-2" d="M422.15,571.44a9,9,0,0,1,9.05,8.95v26.86c0,8.19,1.38,11.77,6.21,16.21,3.46,3.16,8.23,3.72,10.67,3.78l.63,0H482a9,9,0,0,1,9.06,8.95V667a9,9,0,0,1-9.06,9h-33.3a9,9,0,0,1-9-9V651.6c0-6.49,0-11.6-7.25-20.47-6.05-8-14.63-10.35-20.46-10.91h-23.1a9,9,0,0,1-9.06-9V580.39a9,9,0,0,1,9.06-8.95h33.3m0-2h-33.3a11,11,0,0,0-11.06,10.95v30.87a11,11,0,0,0,11.06,11h23c5.62.55,13.44,2.77,19,10.11l0,0,0,0c6.8,8.32,6.8,12.89,6.8,19.21V667a11,11,0,0,0,11,11H482a11,11,0,0,0,11.06-11V636.16A11,11,0,0,0,482,625.21h-33.3l-.55,0h-.11c-2.25-.07-6.36-.58-9.29-3.26-4.42-4.06-5.56-7.09-5.56-14.73V580.39a11,11,0,0,0-11.05-10.95Z"/><path class="cls-1" d="M1203.13,1058.09a9,9,0,0,1,9,9v30.87a9,9,0,0,1-9,8.95h-33.3a9,9,0,0,1-9.06-8.95v-30.87a9,9,0,0,1,9.06-9h33.3m0-2h-33.3a11,11,0,0,0-11.06,11v30.87a11,11,0,0,0,11.06,10.95h33.3a11,11,0,0,0,11-10.95v-30.87a11,11,0,0,0-11-11Z"/><path class="cls-2" d="M1272.05,1067.05v30.87a9,9,0,0,1-9.06,8.95h-33.3a9,9,0,0,1-9-8.95v-26.86c0-8.19-1.38-11.77-6.21-16.21-3.46-3.16-8.23-3.72-10.67-3.78l-.63,0h-33.3a9,9,0,0,1-9.06-8.95v-30.87a9,9,0,0,1,9.06-8.95h33.3a9,9,0,0,1,9,8.95v15.43c0,6.49,0,11.6,7.25,20.47,6,8,14.63,10.35,20.46,10.91H1263A9,9,0,0,1,1272.05,1067.05Z"/><path class="cls-1" d="M1272.69,1006.54v30.87a9,9,0,0,1-9,8.95h-33.3a9,9,0,0,1-9.06-8.95v-30.87a9,9,0,0,1,9.06-9h33.3A9,9,0,0,1,1272.69,1006.54Z"/><path class="cls-2" d="M1263.64,941.82a9,9,0,0,1,9,8.95V966.2c0,6.49,0,11.6,7.25,20.47,6,8.05,14.63,10.35,20.46,10.91h23.1a9,9,0,0,1,9.06,9v30.87a9,9,0,0,1-9.06,8.95h-33.3a9,9,0,0,1-9-8.95v-26.86c0-8.19-1.38-11.77-6.21-16.21-3.46-3.16-8.23-3.72-10.67-3.78l-.63,0h-33.3a9,9,0,0,1-9.06-9V950.77a9,9,0,0,1,9.06-8.95h33.3m0-2h-33.3a11,11,0,0,0-11.06,10.95v30.87a11,11,0,0,0,11.06,11h33.3l.55,0h.11c2.25.07,6.37.58,9.29,3.26,4.42,4.06,5.56,7.09,5.56,14.73v26.86a11,11,0,0,0,11,10.95h33.3a11,11,0,0,0,11.06-10.95v-30.87a11,11,0,0,0-11.06-11h-23c-5.62-.55-13.44-2.77-19-10.11l0,0,0,0c-6.8-8.32-6.8-12.89-6.8-19.21V950.77a11,11,0,0,0-11-10.95Z"/><path class="cls-1" d="M1206.42,888.52a9,9,0,0,1,9.06,9v30.87a9,9,0,0,1-9.06,9h-33.3a9,9,0,0,1-9-9V897.47a9,9,0,0,1,9-9h33.3m0-2h-33.3a11,11,0,0,0-11,11v30.87a11,11,0,0,0,11,11h33.3a11,11,0,0,0,11.06-11V897.47a11,11,0,0,0-11.06-11Z"/><path class="cls-2" d="M1104.2,928.34V897.47a9,9,0,0,1,9.06-9h33.3a9,9,0,0,1,9,9v26.86c0,8.19,1.38,11.77,6.21,16.21,3.46,3.16,8.23,3.72,10.67,3.78l.63,0h33.3a9,9,0,0,1,9.06,9v30.87a9,9,0,0,1-9.06,8.95h-33.3a9,9,0,0,1-9-8.95V968.68c0-6.49,0-11.6-7.25-20.47-6-8.05-14.63-10.35-20.46-10.91h-23.1A9,9,0,0,1,1104.2,928.34Z"/><path class="cls-1" d="M1103.56,988.85V958a9,9,0,0,1,9-9h33.3a9,9,0,0,1,9.06,9v30.87a9,9,0,0,1-9.06,9h-33.3A9,9,0,0,1,1103.56,988.85Z"/><path class="cls-2" d="M1086.05,949a9,9,0,0,1,9,9v26.86c0,8.19,1.38,11.77,6.21,16.21,3.46,3.16,8.23,3.72,10.67,3.78l.63,0h33.3a9,9,0,0,1,9.06,9v30.87a9,9,0,0,1-9.06,9h-33.3a9,9,0,0,1-9-9v-15.43c0-6.49,0-11.6-7.25-20.47-6-8.05-14.63-10.35-20.46-10.91h-23.1a9,9,0,0,1-9.06-9V958a9,9,0,0,1,9.06-9h33.3m0-2h-33.3a11,11,0,0,0-11.06,11v30.87a11,11,0,0,0,11.06,11h23c5.62.55,13.44,2.76,19,10.11l0,0,0,0c6.79,8.32,6.79,12.89,6.79,19.21v15.43a11,11,0,0,0,11,11h33.3a11,11,0,0,0,11.06-11v-30.87a11,11,0,0,0-11.06-11h-33.3l-.54,0H1112c-2.24-.07-6.36-.58-9.29-3.26-4.41-4.06-5.56-7.09-5.56-14.73V958a11,11,0,0,0-11-11Z"/><path class="cls-1" d="M1025.54,888.52a9,9,0,0,1,9,9v30.87a9,9,0,0,1-9,8.95h-33.3a9,9,0,0,1-9.06-8.95V897.48a9,9,0,0,1,9.06-9h33.3m0-2h-33.3a11,11,0,0,0-11.06,11v30.87a11,11,0,0,0,11.06,10.95h33.3a11,11,0,0,0,11-10.95V897.48a11,11,0,0,0-11-11Z"/><path class="cls-2" d="M1094.46,897.48v30.87a9,9,0,0,1-9.06,8.95h-33.3a9,9,0,0,1-9-8.95V901.49c0-8.19-1.38-11.77-6.21-16.21-3.46-3.16-8.23-3.72-10.67-3.78l-.63,0h-33.3a9,9,0,0,1-9.06-8.95V841.71a9,9,0,0,1,9.06-9h33.3a9,9,0,0,1,9,9v15.43c0,6.49,0,11.6,7.25,20.47,6.05,8,14.63,10.35,20.46,10.91h23.1A9,9,0,0,1,1094.46,897.48Z"/><path class="cls-1" d="M1095.1,837v30.87a9,9,0,0,1-9,8.95h-33.3a9,9,0,0,1-9.06-8.95V837a9,9,0,0,1,9.06-9h33.3A9,9,0,0,1,1095.1,837Z"/><path class="cls-2" d="M1086.05,772.25a9,9,0,0,1,9,9v15.43c0,6.49,0,11.6,7.25,20.47,6.05,8,14.63,10.35,20.46,10.91h23.1a9,9,0,0,1,9.06,9v30.87a9,9,0,0,1-9.06,8.95h-33.3a9,9,0,0,1-9-8.95V841c0-8.19-1.38-11.77-6.21-16.21-3.46-3.16-8.23-3.72-10.67-3.78l-.63,0h-33.3a9,9,0,0,1-9.06-8.95V781.2a9,9,0,0,1,9.06-9h33.3m0-2h-33.3a11,11,0,0,0-11.06,11v30.87A11,11,0,0,0,1052.75,823h33.3a4.93,4.93,0,0,0,.55,0h.11c2.25.06,6.37.58,9.3,3.25,4.41,4.06,5.55,7.09,5.55,14.74v26.86a11,11,0,0,0,11,10.95h33.3A11,11,0,0,0,1157,867.84V837a11,11,0,0,0-11.06-11h-23c-5.62-.56-13.44-2.77-19-10.12l0,0,0,0c-6.8-8.32-6.8-12.88-6.8-19.2V781.2a11,11,0,0,0-11-11Z"/><path class="cls-1" d="M1028.84,718.94a9,9,0,0,1,9.06,8.95v30.87a9,9,0,0,1-9.06,9h-33.3a9,9,0,0,1-9-9V727.89a9,9,0,0,1,9-8.95h33.3m0-2h-33.3a11,11,0,0,0-11,10.95v30.87a11,11,0,0,0,11,11h33.3a11,11,0,0,0,11.06-11V727.89a11,11,0,0,0-11.06-10.95Z"/><path class="cls-2" d="M926.62,758.76V727.89a9,9,0,0,1,9.06-8.95H969a9,9,0,0,1,9,8.95v26.86c0,8.19,1.38,11.77,6.21,16.21,3.46,3.16,8.23,3.72,10.67,3.78l.63,0h33.3a9,9,0,0,1,9.06,8.95v30.87a9,9,0,0,1-9.06,9h-33.3a9,9,0,0,1-9-9V799.1c0-6.49,0-11.6-7.25-20.47-6-8-14.63-10.35-20.46-10.91h-23.1A9,9,0,0,1,926.62,758.76Z"/><path class="cls-1" d="M926,819.27V788.4a9,9,0,0,1,9-8.95h33.3a9,9,0,0,1,9.06,8.95v30.87a9,9,0,0,1-9.06,9H935A9,9,0,0,1,926,819.27Z"/><path class="cls-2" d="M908.47,779.45a9,9,0,0,1,9,8.95v26.86c0,8.19,1.38,11.77,6.21,16.21,3.46,3.16,8.23,3.72,10.67,3.78l.63,0h33.3a9,9,0,0,1,9.06,8.95V875a9,9,0,0,1-9.06,9H935a9,9,0,0,1-9-9V859.61c0-6.49,0-11.6-7.25-20.47-6.05-8-14.63-10.35-20.46-10.91h-23.1a9,9,0,0,1-9.06-9V788.4a9,9,0,0,1,9.06-8.95h33.3m0-2h-33.3a11,11,0,0,0-11.06,10.95v30.87a11,11,0,0,0,11.06,11h23c5.62.56,13.44,2.77,19,10.11l0,0,0,0c6.8,8.32,6.8,12.88,6.8,19.2V875a11,11,0,0,0,11,11h33.3a11,11,0,0,0,11.06-11V844.17a11,11,0,0,0-11.06-10.95H935l-.55,0h-.11c-2.25-.06-6.37-.58-9.3-3.26-4.41-4-5.55-7.08-5.55-14.73V788.4a11,11,0,0,0-11-10.95Z"/><path class="cls-1" d="M848,718.94a9,9,0,0,1,9.06,9v30.87a9,9,0,0,1-9.06,9h-33.3a9,9,0,0,1-9.06-9V727.9a9,9,0,0,1,9.06-9H848m0-2h-33.3a11,11,0,0,0-11.06,11v30.87a11,11,0,0,0,11.06,11H848a11,11,0,0,0,11.06-11V727.9a11,11,0,0,0-11.06-11Z"/><path class="cls-2" d="M916.87,727.9v30.87a9,9,0,0,1-9.06,9h-33.3a9,9,0,0,1-9-9V731.91c0-8.19-1.39-11.77-6.22-16.21-3.45-3.16-8.22-3.72-10.67-3.78-.21,0-.41,0-.62,0h-33.3a9,9,0,0,1-9.07-9V672.13a9,9,0,0,1,9.07-9H848a9,9,0,0,1,9,9v15.43c0,6.49,0,11.6,7.25,20.47,6.06,8.05,14.63,10.35,20.47,10.91h23.09A9,9,0,0,1,916.87,727.9Z"/><path class="cls-1" d="M917.52,667.39v30.87a9,9,0,0,1-9,9h-33.3a9,9,0,0,1-9.06-9V667.39a9,9,0,0,1,9.06-9h33.3A9,9,0,0,1,917.52,667.39Z"/><path class="cls-2" d="M908.47,602.67a9,9,0,0,1,9,9v15.43c0,6.49,0,11.6,7.25,20.47,6.05,8.05,14.63,10.35,20.46,10.91h23.1a9,9,0,0,1,9.06,9v30.87a9,9,0,0,1-9.06,9H935a9,9,0,0,1-9-9V671.4c0-8.19-1.38-11.77-6.21-16.21-3.46-3.16-8.23-3.72-10.67-3.78l-.63,0h-33.3a9,9,0,0,1-9.06-9V611.62a9,9,0,0,1,9.06-9h33.3m0-2h-33.3a11,11,0,0,0-11.06,11v30.87a11,11,0,0,0,11.06,11h33.3l.54,0h.12c2.24.07,6.36.58,9.29,3.26,4.41,4.06,5.56,7.09,5.56,14.73v26.86a11,11,0,0,0,11,11h33.3a11,11,0,0,0,11.06-11V667.39a11,11,0,0,0-11.06-11h-23c-5.62-.56-13.44-2.77-19-10.11l0,0,0,0c-6.79-8.31-6.79-12.88-6.79-19.2V611.62a11,11,0,0,0-11-11Z"/><path class="cls-1" d="M851.25,549.37a9,9,0,0,1,9.06,9v30.87a9,9,0,0,1-9.06,9H818a9,9,0,0,1-9.05-9V558.32a9,9,0,0,1,9.05-9h33.3m0-2H818a11,11,0,0,0-11.05,11v30.87a11,11,0,0,0,11.05,11h33.3a11,11,0,0,0,11.06-11V558.32a11,11,0,0,0-11.06-11Z"/><path class="cls-2" d="M749,589.19V558.32a9,9,0,0,1,9.06-9h33.3a9,9,0,0,1,9.05,9v26.86c0,8.19,1.38,11.77,6.21,16.21,3.46,3.16,8.23,3.72,10.67,3.78l.63,0h33.3a9,9,0,0,1,9.06,9V645a9,9,0,0,1-9.06,8.95H818A9,9,0,0,1,808.9,645V629.53c0-6.49,0-11.6-7.25-20.47-6-8-14.63-10.35-20.46-10.91h-23.1A9,9,0,0,1,749,589.19Z"/><path class="cls-1" d="M748.39,649.7V618.83a9,9,0,0,1,9.05-9h33.3a9,9,0,0,1,9.06,9V649.7a9,9,0,0,1-9.06,9h-33.3A9,9,0,0,1,748.39,649.7Z"/><path class="cls-2" d="M730.88,609.88a9,9,0,0,1,9,9v26.86c0,8.19,1.38,11.77,6.21,16.21,3.46,3.16,8.23,3.72,10.67,3.78l.63,0h33.3a9,9,0,0,1,9.06,9v30.87a9,9,0,0,1-9.06,8.95h-33.3a9,9,0,0,1-9.05-8.95V690c0-6.49,0-11.6-7.25-20.47-6-8.05-14.63-10.35-20.46-10.91h-23.1a9,9,0,0,1-9.06-9V618.83a9,9,0,0,1,9.06-9h33.3m0-2h-33.3a11,11,0,0,0-11.06,11V649.7a11,11,0,0,0,11.06,11h23c5.62.55,13.44,2.76,19,10.11l0,0,0,0c6.8,8.32,6.8,12.89,6.8,19.21v15.43a11,11,0,0,0,11.05,10.95h33.3a11,11,0,0,0,11.06-10.95V674.6a11,11,0,0,0-11.06-11h-33.3l-.55,0h-.11c-2.25-.06-6.37-.58-9.29-3.25-4.42-4.06-5.56-7.09-5.56-14.73V618.83a11,11,0,0,0-11-11Z"/><path class="cls-1" d="M670.37,549.37a9,9,0,0,1,9,9V589.2a9,9,0,0,1-9,8.95h-33.3A9,9,0,0,1,628,589.2V558.33a9,9,0,0,1,9.06-9h33.3m0-2h-33.3a11,11,0,0,0-11.06,11V589.2a11,11,0,0,0,11.06,10.95h33.3a11,11,0,0,0,11-10.95V558.33a11,11,0,0,0-11-11Z"/><path class="cls-2" d="M739.29,558.33V589.2a9,9,0,0,1-9.06,8.95h-33.3a9,9,0,0,1-9-8.95V562.34c0-8.19-1.38-11.77-6.21-16.21-3.46-3.16-8.23-3.72-10.67-3.78l-.63,0h-33.3a9,9,0,0,1-9.06-9V502.56a9,9,0,0,1,9.06-8.95h33.3a9,9,0,0,1,9,8.95V518c0,6.49,0,11.6,7.25,20.47,6.05,8,14.63,10.35,20.46,10.91h23.1A9,9,0,0,1,739.29,558.33Z"/><path class="cls-1" d="M739.93,497.81v30.87a9,9,0,0,1-9,9h-33.3a9,9,0,0,1-9.06-9V497.81a9,9,0,0,1,9.06-9h33.3A9,9,0,0,1,739.93,497.81Z"/><path class="cls-2" d="M730.88,433.09a9,9,0,0,1,9,9v15.43c0,6.49,0,11.6,7.25,20.47,6.05,8.05,14.63,10.35,20.46,10.91h23.1a9,9,0,0,1,9.06,9v30.87a9,9,0,0,1-9.06,9h-33.3a9,9,0,0,1-9.05-9V501.82c0-8.19-1.38-11.77-6.21-16.21-3.46-3.16-8.23-3.72-10.67-3.78l-.63,0h-33.3a9,9,0,0,1-9.06-8.95V442a9,9,0,0,1,9.06-9h33.3m0-2h-33.3a11,11,0,0,0-11.06,11v30.87a11,11,0,0,0,11.06,10.95h33.3l.54,0h.12c2.24.06,6.36.58,9.29,3.25,4.41,4.06,5.56,7.09,5.56,14.73v26.86a11,11,0,0,0,11.05,11h33.3a11,11,0,0,0,11.06-11V497.81a11,11,0,0,0-11.06-11h-23c-5.62-.55-13.43-2.76-19-10.11l0,0,0,0c-6.8-8.32-6.8-12.88-6.8-19.21V442a11,11,0,0,0-11-11Z"/><path class="cls-1" d="M673.66,379.79a9,9,0,0,1,9.06,8.95v30.87a9,9,0,0,1-9.06,9h-33.3a9,9,0,0,1-9.05-9V388.74a9,9,0,0,1,9.05-8.95h33.3m0-2h-33.3a11,11,0,0,0-11.05,10.95v30.87a11,11,0,0,0,11.05,11h33.3a11,11,0,0,0,11.06-11V388.74a11,11,0,0,0-11.06-10.95Z"/><path class="cls-2" d="M571.44,419.61V388.74a9,9,0,0,1,9.06-8.95h33.3a9,9,0,0,1,9.05,8.95V415.6c0,8.19,1.38,11.77,6.21,16.21,3.46,3.16,8.23,3.72,10.67,3.78l.63,0h33.3a9,9,0,0,1,9.06,8.95v30.87a9,9,0,0,1-9.06,8.95h-33.3a9,9,0,0,1-9.05-8.95V460c0-6.49,0-11.6-7.25-20.47-6-8.05-14.63-10.35-20.46-10.91H580.5A9,9,0,0,1,571.44,419.61Z"/><path class="cls-1" d="M570.8,480.12V449.25a9,9,0,0,1,9.05-8.95h33.3a9,9,0,0,1,9.06,8.95v30.87a9,9,0,0,1-9.06,9h-33.3A9,9,0,0,1,570.8,480.12Z"/><path class="cls-2" d="M553.29,440.3a9,9,0,0,1,9.05,8.95v26.86c0,8.19,1.38,11.77,6.21,16.21,3.46,3.16,8.23,3.72,10.67,3.78l.63,0h33.3a9,9,0,0,1,9.06,8.95v30.87a9,9,0,0,1-9.06,9h-33.3a9,9,0,0,1-9.05-9V520.46c0-6.49,0-11.6-7.25-20.47-6-8.05-14.63-10.35-20.46-10.91H520a9,9,0,0,1-9.06-9V449.25A9,9,0,0,1,520,440.3h33.3m0-2H520a11,11,0,0,0-11.06,10.95v30.87a11,11,0,0,0,11.06,11h23c5.62.56,13.44,2.77,19,10.11l0,0,0,0c6.8,8.31,6.8,12.88,6.8,19.2v15.43a11,11,0,0,0,11.05,11h33.3a11,11,0,0,0,11.06-11V505a11,11,0,0,0-11.06-10.95h-33.3l-.55,0h-.11c-2.25-.07-6.36-.58-9.29-3.26-4.42-4-5.56-7.08-5.56-14.73V449.25a11,11,0,0,0-11.05-10.95Z"/><path class="cls-1" d="M1329.06,932.16a9,9,0,0,1,9,9V972a9,9,0,0,1-9,9h-33.3a9,9,0,0,1-9.06-9V941.12a9,9,0,0,1,9.06-9h33.3m0-2h-33.3a11,11,0,0,0-11.06,11V972a11,11,0,0,0,11.06,11h33.3a11,11,0,0,0,11-11V941.12a11,11,0,0,0-11-11Z"/><path class="cls-2" d="M1398,941.12V972a9,9,0,0,1-9.06,9h-33.3a9,9,0,0,1-9-9V945.13c0-8.19-1.38-11.77-6.21-16.21-3.46-3.16-8.23-3.72-10.67-3.78l-.63,0h-33.3a9,9,0,0,1-9.06-8.95V885.35a9,9,0,0,1,9.06-9h33.3a9,9,0,0,1,9,9v15.43c0,6.49,0,11.6,7.25,20.47,6.05,8,14.63,10.35,20.46,10.91h23.1A9,9,0,0,1,1398,941.12Z"/><path class="cls-1" d="M1398.62,880.61v30.87a9,9,0,0,1-9,8.95h-33.3a9,9,0,0,1-9.06-8.95V880.61a9,9,0,0,1,9.06-9h33.3A9,9,0,0,1,1398.62,880.61Z"/><path class="cls-2" d="M1389.57,815.89a9,9,0,0,1,9,9v15.43c0,6.49,0,11.6,7.25,20.47,6.05,8,14.63,10.35,20.46,10.91h23.1a9,9,0,0,1,9.06,9v30.87a9,9,0,0,1-9.06,8.95h-33.3a9,9,0,0,1-9.05-8.95V884.62c0-8.19-1.38-11.77-6.21-16.21-3.46-3.16-8.23-3.72-10.67-3.78l-.63,0h-33.3a9,9,0,0,1-9.06-8.95V824.84a9,9,0,0,1,9.06-9h33.3m0-2h-33.3a11,11,0,0,0-11.06,11v30.87a11,11,0,0,0,11.06,10.95h33.3l.55,0h.11c2.25.07,6.37.58,9.29,3.26,4.42,4.06,5.56,7.09,5.56,14.73v26.86a11,11,0,0,0,11.05,10.95h33.3a11,11,0,0,0,11.06-10.95V880.61a11,11,0,0,0-11.06-11h-23c-5.62-.55-13.44-2.77-19-10.11l0,0,0,0c-6.8-8.32-6.8-12.89-6.8-19.21V824.84a11,11,0,0,0-11-11Z"/><path class="cls-1" d="M1332.35,762.59a9,9,0,0,1,9.06,8.95v30.87a9,9,0,0,1-9.06,9h-33.3a9,9,0,0,1-9-9V771.54a9,9,0,0,1,9-8.95h33.3m0-2h-33.3a11,11,0,0,0-11,10.95v30.87a11,11,0,0,0,11,11h33.3a11,11,0,0,0,11.06-11V771.54a11,11,0,0,0-11.06-10.95Z"/><path class="cls-2" d="M1230.13,802.41V771.54a9,9,0,0,1,9.06-8.95h33.3a9,9,0,0,1,9,8.95V798.4c0,8.19,1.38,11.77,6.21,16.21,3.46,3.16,8.23,3.72,10.67,3.78l.63,0h33.3a9,9,0,0,1,9.06,8.95v30.87a9,9,0,0,1-9.06,9h-33.3a9,9,0,0,1-9-9V842.75c0-6.49,0-11.6-7.25-20.47-6-8-14.63-10.35-20.46-10.91h-23.1A9,9,0,0,1,1230.13,802.41Z"/><path class="cls-1" d="M1229.49,862.92V832.05a9,9,0,0,1,9-8.95h33.3a9,9,0,0,1,9.06,8.95v30.87a9,9,0,0,1-9.06,9h-33.3A9,9,0,0,1,1229.49,862.92Z"/><path class="cls-2" d="M1212,823.1a9,9,0,0,1,9,8.95v26.86c0,8.19,1.38,11.77,6.21,16.21,3.46,3.16,8.23,3.72,10.67,3.78l.63,0h33.3a9,9,0,0,1,9.06,9v30.87a9,9,0,0,1-9.06,8.95h-33.3a9,9,0,0,1-9-8.95V903.26c0-6.49,0-11.6-7.25-20.47-6-8-14.63-10.35-20.46-10.91h-23.1a9,9,0,0,1-9.06-9V832.05a9,9,0,0,1,9.06-8.95H1212m0-2h-33.3a11,11,0,0,0-11.06,10.95v30.87a11,11,0,0,0,11.06,11h23c5.62.55,13.44,2.76,19,10.11l0,0,0,0c6.79,8.32,6.79,12.89,6.79,19.21v15.43a11,11,0,0,0,11,10.95h33.3a11,11,0,0,0,11.06-10.95V887.82a11,11,0,0,0-11.06-11h-33.3l-.54,0h-.12c-2.24-.07-6.36-.59-9.29-3.26-4.41-4.06-5.56-7.09-5.56-14.73V832.05a11,11,0,0,0-11-10.95Z"/><path class="cls-1" d="M1151.47,762.59a9,9,0,0,1,9,9v30.87a9,9,0,0,1-9,9h-33.3a9,9,0,0,1-9.06-9V771.55a9,9,0,0,1,9.06-9h33.3m0-2h-33.3a11,11,0,0,0-11.06,11v30.87a11,11,0,0,0,11.06,11h33.3a11,11,0,0,0,11-11V771.55a11,11,0,0,0-11-11Z"/><path class="cls-2" d="M1220.39,771.55v30.87a9,9,0,0,1-9.06,9H1178a9,9,0,0,1-9-9V775.56c0-8.19-1.38-11.77-6.21-16.21-3.46-3.16-8.23-3.72-10.67-3.78l-.63,0h-33.3a9,9,0,0,1-9.06-9V715.78a9,9,0,0,1,9.06-8.95h33.3a9,9,0,0,1,9,8.95v15.43c0,6.49,0,11.6,7.25,20.47,6,8.05,14.63,10.35,20.46,10.91h23.1A9,9,0,0,1,1220.39,771.55Z"/><path class="cls-1" d="M1221,711v30.87a9,9,0,0,1-9,9h-33.3a9,9,0,0,1-9.06-9V711a9,9,0,0,1,9.06-9H1212A9,9,0,0,1,1221,711Z"/><path class="cls-2" d="M1212,646.32a9,9,0,0,1,9,8.95V670.7c0,6.49,0,11.6,7.25,20.47,6,8.05,14.63,10.35,20.46,10.91h23.1a9,9,0,0,1,9.06,9v30.87a9,9,0,0,1-9.06,9h-33.3a9,9,0,0,1-9-9V715.05c0-8.19-1.38-11.77-6.21-16.21-3.46-3.16-8.23-3.72-10.67-3.78l-.63,0h-33.3a9,9,0,0,1-9.06-9V655.27a9,9,0,0,1,9.06-8.95H1212m0-2h-33.3a11,11,0,0,0-11.06,10.95v30.87a11,11,0,0,0,11.06,11H1212a4.93,4.93,0,0,0,.55,0h.11c2.25.06,6.37.58,9.3,3.25,4.41,4.06,5.55,7.09,5.55,14.74v26.86a11,11,0,0,0,11,11h33.3a11,11,0,0,0,11.06-11V711a11,11,0,0,0-11.06-11h-23c-5.62-.56-13.44-2.77-19-10.12l0,0,0,0c-6.8-8.32-6.8-12.88-6.8-19.2V655.27a11,11,0,0,0-11-10.95Z"/><path class="cls-1" d="M1154.77,593a9,9,0,0,1,9.06,9v30.87a9,9,0,0,1-9.06,9h-33.3a9,9,0,0,1-9-9V602a9,9,0,0,1,9-9h33.3m0-2h-33.3a11,11,0,0,0-11,11v30.87a11,11,0,0,0,11,11h33.3a11,11,0,0,0,11.06-11V602a11,11,0,0,0-11.06-11Z"/><path class="cls-2" d="M1052.55,632.83V602a9,9,0,0,1,9.06-9h33.3a9,9,0,0,1,9,9v26.86c0,8.19,1.38,11.77,6.21,16.21,3.46,3.16,8.23,3.72,10.67,3.78l.63,0h33.3a9,9,0,0,1,9.06,9V688.6a9,9,0,0,1-9.06,8.95h-33.3a9,9,0,0,1-9-8.95V673.17c0-6.49,0-11.6-7.25-20.47-6.05-8.05-14.63-10.35-20.46-10.91h-23.1A9,9,0,0,1,1052.55,632.83Z"/><path class="cls-1" d="M1051.91,693.34V662.47a9,9,0,0,1,9-9h33.3a9,9,0,0,1,9.06,9v30.87a9,9,0,0,1-9.06,9H1061A9,9,0,0,1,1051.91,693.34Z"/><path class="cls-2" d="M1034.4,653.52a9,9,0,0,1,9,9v26.86c0,8.19,1.38,11.77,6.21,16.21,3.46,3.16,8.23,3.72,10.67,3.78l.63,0h33.3a9,9,0,0,1,9.06,9v30.87a9,9,0,0,1-9.06,8.95H1061a9,9,0,0,1-9-8.95V733.68c0-6.49,0-11.6-7.25-20.47-6.05-8.05-14.63-10.35-20.46-10.91h-23.1a9,9,0,0,1-9.06-9V662.47a9,9,0,0,1,9.06-9h33.3m0-2h-33.3a11,11,0,0,0-11.06,11v30.87a11,11,0,0,0,11.06,11h23c5.62.56,13.44,2.77,19,10.11l0,0,0,0c6.8,8.32,6.8,12.88,6.8,19.2v15.43a11,11,0,0,0,11,10.95h33.3a11,11,0,0,0,11.06-10.95V718.24a11,11,0,0,0-11.06-11H1061l-.55,0h-.11c-2.25-.06-6.37-.58-9.3-3.26-4.41-4-5.55-7.08-5.55-14.73V662.47a11,11,0,0,0-11-11Z"/><path class="cls-1" d="M973.89,593a9,9,0,0,1,9,9v30.87a9,9,0,0,1-9,8.95h-33.3a9,9,0,0,1-9.06-8.95V602a9,9,0,0,1,9.06-9h33.3m0-2h-33.3a11,11,0,0,0-11.06,11v30.87a11,11,0,0,0,11.06,10.95h33.3a11,11,0,0,0,11-10.95V602a11,11,0,0,0-11-11Z"/><path class="cls-2" d="M1042.81,602v30.87a9,9,0,0,1-9.07,8.95h-33.29a9,9,0,0,1-9.05-8.95V606c0-8.19-1.39-11.77-6.21-16.21-3.46-3.16-8.23-3.72-10.68-3.78-.2,0-.41,0-.62,0h-33.3a9,9,0,0,1-9.07-8.95V546.2a9,9,0,0,1,9.07-9h33.3a9,9,0,0,1,9.05,9v15.43c0,6.49,0,11.6,7.25,20.47,6,8,14.63,10.35,20.46,10.91h23.09A9,9,0,0,1,1042.81,602Z"/><path class="cls-1" d="M1043.45,541.46v30.87a9,9,0,0,1-9,8.95h-33.3a9,9,0,0,1-9.06-8.95V541.46a9,9,0,0,1,9.06-9h33.3A9,9,0,0,1,1043.45,541.46Z"/><path class="cls-2" d="M1034.4,476.74a9,9,0,0,1,9,8.95v15.43c0,6.49,0,11.6,7.25,20.47,6,8,14.63,10.35,20.46,10.91h23.1a9,9,0,0,1,9.06,9v30.87a9,9,0,0,1-9.06,8.95H1061a9,9,0,0,1-9-8.95V545.47c0-8.19-1.38-11.77-6.21-16.21-3.46-3.16-8.23-3.72-10.67-3.78l-.63,0h-33.3a9,9,0,0,1-9.06-9V485.69a9,9,0,0,1,9.06-8.95h33.3m0-2h-33.3A11,11,0,0,0,990,485.69v30.87a11,11,0,0,0,11.06,11h33.3l.54,0h.12c2.24.07,6.36.58,9.29,3.26,4.41,4.06,5.56,7.09,5.56,14.73v26.86a11,11,0,0,0,11,10.95h33.3a11,11,0,0,0,11.06-10.95V541.46a11,11,0,0,0-11.06-11h-23c-5.62-.56-13.44-2.77-19-10.11l0,0,0,0c-6.79-8.31-6.79-12.88-6.79-19.2V485.69a11,11,0,0,0-11-10.95Z"/><path class="cls-1" d="M977.18,423.44a9,9,0,0,1,9.06,8.95v30.87a9,9,0,0,1-9.06,9h-33.3a9,9,0,0,1-9-9V432.39a9,9,0,0,1,9-8.95h33.3m0-2h-33.3a11,11,0,0,0-11,10.95v30.87a11,11,0,0,0,11,11h33.3a11,11,0,0,0,11.06-11V432.39a11,11,0,0,0-11.06-10.95Z"/><path class="cls-2" d="M875,463.26V432.39a9,9,0,0,1,9.06-8.95h33.3a9,9,0,0,1,9,8.95v26.86c0,8.19,1.38,11.77,6.21,16.21,3.46,3.16,8.23,3.72,10.67,3.78l.63,0h33.3a9,9,0,0,1,9.06,9V519a9,9,0,0,1-9.06,9h-33.3a9,9,0,0,1-9-9V503.6c0-6.49,0-11.6-7.25-20.47-6.05-8.05-14.63-10.35-20.46-10.91H884A9,9,0,0,1,875,463.26Z"/><path class="cls-1" d="M874.32,523.77V492.9a9,9,0,0,1,9-8.95h33.3a9,9,0,0,1,9.06,8.95v30.87a9,9,0,0,1-9.06,9h-33.3A9,9,0,0,1,874.32,523.77Z"/><path class="cls-2" d="M856.81,484a9,9,0,0,1,9.05,8.95v26.86c0,8.19,1.38,11.77,6.21,16.21,3.46,3.16,8.23,3.72,10.67,3.78l.63,0h33.3a9,9,0,0,1,9.06,8.95v30.87a9,9,0,0,1-9.06,9h-33.3a9,9,0,0,1-9-9V564.11c0-6.49,0-11.6-7.25-20.47-6.05-8-14.63-10.35-20.46-10.91h-23.1a9,9,0,0,1-9.06-9V492.9a9,9,0,0,1,9.06-8.95h33.3m0-2h-33.3a11,11,0,0,0-11.06,10.95v30.87a11,11,0,0,0,11.06,11h23c5.62.55,13.44,2.76,19,10.11l0,0,0,0c6.8,8.32,6.8,12.89,6.8,19.21v15.43a11,11,0,0,0,11,11h33.3a11,11,0,0,0,11.06-11V548.67a11,11,0,0,0-11.06-10.95h-33.3l-.55,0h-.11c-2.25-.06-6.37-.58-9.29-3.25-4.42-4.06-5.56-7.09-5.56-14.73V492.9A11,11,0,0,0,856.81,482Z"/><path class="cls-1" d="M796.3,423.44a9,9,0,0,1,9.05,9v30.87a9,9,0,0,1-9.05,9H763a9,9,0,0,1-9.06-9V432.4a9,9,0,0,1,9.06-9h33.3m0-2H763a11,11,0,0,0-11.06,11v30.87a11,11,0,0,0,11.06,11h33.3a11,11,0,0,0,11.05-11V432.4a11,11,0,0,0-11.05-11Z"/><path class="cls-2" d="M865.22,432.4v30.87a9,9,0,0,1-9.06,9h-33.3a9,9,0,0,1-9.05-9V436.41c0-8.19-1.38-11.77-6.21-16.21-3.46-3.16-8.23-3.72-10.67-3.78l-.63,0H763a9,9,0,0,1-9.06-8.95V376.63a9,9,0,0,1,9.06-8.95h33.3a9,9,0,0,1,9.05,8.95v15.43c0,6.49,0,11.6,7.25,20.47,6,8.05,14.63,10.35,20.46,10.91h23.1A9,9,0,0,1,865.22,432.4Z"/><path class="cls-1" d="M865.86,371.88v30.87a9,9,0,0,1-9.05,8.95h-33.3a9,9,0,0,1-9.06-8.95V371.88a9,9,0,0,1,9.06-9h33.3A9,9,0,0,1,865.86,371.88Z"/><path class="cls-2" d="M856.81,307.16a9,9,0,0,1,9.05,8.95v15.43c0,6.49,0,11.6,7.25,20.47,6,8.05,14.63,10.35,20.46,10.91h23.1a9,9,0,0,1,9.06,9v30.87a9,9,0,0,1-9.06,8.95h-33.3a9,9,0,0,1-9-8.95V375.89c0-8.19-1.38-11.77-6.21-16.21-3.46-3.16-8.23-3.72-10.67-3.78l-.63,0h-33.3a9,9,0,0,1-9.06-8.95V316.11a9,9,0,0,1,9.06-8.95h33.3m0-2h-33.3a11,11,0,0,0-11.06,10.95V347a11,11,0,0,0,11.06,10.95h33.3l.54,0h.12c2.24.06,6.36.58,9.29,3.25,4.41,4.06,5.56,7.09,5.56,14.73v26.86a11,11,0,0,0,11,10.95h33.3a11,11,0,0,0,11.06-10.95V371.88a11,11,0,0,0-11.06-11h-23c-5.62-.55-13.43-2.76-18.95-10.11l0,0,0,0c-6.8-8.32-6.8-12.89-6.8-19.21V316.11a11,11,0,0,0-11.05-10.95Z"/><path class="cls-1" d="M799.59,253.86a9,9,0,0,1,9.06,8.95v30.87a9,9,0,0,1-9.06,9h-33.3a9,9,0,0,1-9-9V262.81a9,9,0,0,1,9-8.95h33.3m0-2h-33.3a11,11,0,0,0-11,10.95v30.87a11,11,0,0,0,11,11h33.3a11,11,0,0,0,11.06-11V262.81a11,11,0,0,0-11.06-10.95Z"/><path class="cls-2" d="M697.37,293.68V262.81a9,9,0,0,1,9.06-8.95h33.3a9,9,0,0,1,9,8.95v26.86c0,8.19,1.38,11.77,6.21,16.21,3.46,3.16,8.23,3.72,10.67,3.78l.63,0h33.3a9,9,0,0,1,9.06,8.95v30.87a9,9,0,0,1-9.06,8.95h-33.3a9,9,0,0,1-9-8.95V334c0-6.49,0-11.6-7.25-20.47-6-8.05-14.63-10.35-20.46-10.91h-23.1A9,9,0,0,1,697.37,293.68Z"/><path class="cls-1" d="M696.73,354.19V323.32a9,9,0,0,1,9-8.95h33.3a9,9,0,0,1,9.06,8.95v30.87a9,9,0,0,1-9.06,9h-33.3A9,9,0,0,1,696.73,354.19Z"/><path class="cls-2" d="M679.22,314.37a9,9,0,0,1,9,8.95v26.86c0,8.19,1.38,11.77,6.21,16.21,3.46,3.16,8.23,3.72,10.67,3.78l.63,0h33.3a9,9,0,0,1,9.06,8.95V410a9,9,0,0,1-9.06,9h-33.3a9,9,0,0,1-9-9V394.53c0-6.49,0-11.6-7.25-20.47-6.05-8.05-14.63-10.35-20.46-10.91h-23.1a9,9,0,0,1-9.06-9V323.32a9,9,0,0,1,9.06-8.95h33.3m0-2h-33.3a11,11,0,0,0-11.06,10.95v30.87a11,11,0,0,0,11.06,11h23c5.62.56,13.44,2.77,19,10.11l0,0,0,0c6.8,8.31,6.8,12.88,6.8,19.2V410a11,11,0,0,0,11,11h33.3a11,11,0,0,0,11.06-11V379.09a11,11,0,0,0-11.06-10.95h-33.3l-.55,0h-.11c-2.25-.07-6.36-.58-9.29-3.26-4.42-4.05-5.56-7.08-5.56-14.73V323.32a11,11,0,0,0-11-10.95Z"/><path class="cls-1" d="M1455,806.23a9,9,0,0,1,9,9v30.87a9,9,0,0,1-9,9h-33.3a9,9,0,0,1-9.06-9V815.19a9,9,0,0,1,9.06-9H1455m0-2h-33.3a11,11,0,0,0-11.06,11v30.87a11,11,0,0,0,11.06,11H1455a11,11,0,0,0,11-11V815.19a11,11,0,0,0-11-11Z"/><path class="cls-2" d="M1523.91,815.19v30.87a9,9,0,0,1-9.06,9h-33.3a9,9,0,0,1-9-9V819.2c0-8.19-1.38-11.77-6.21-16.21-3.46-3.16-8.23-3.72-10.67-3.78l-.63,0h-33.3a9,9,0,0,1-9.06-9V759.42a9,9,0,0,1,9.06-8.95H1455a9,9,0,0,1,9,8.95v15.43c0,6.49,0,11.6,7.25,20.47,6,8,14.63,10.35,20.46,10.91h23.1A9,9,0,0,1,1523.91,815.19Z"/><path class="cls-1" d="M1524.55,754.68v30.87a9,9,0,0,1-9,9h-33.3a9,9,0,0,1-9.06-9V754.68a9,9,0,0,1,9.06-9h33.3A9,9,0,0,1,1524.55,754.68Z"/><path class="cls-2" d="M1515.5,690a9,9,0,0,1,9,8.95v15.43c0,6.49,0,11.6,7.25,20.47,6,8.05,14.63,10.35,20.46,10.91h23.1a9,9,0,0,1,9.06,9v30.87a9,9,0,0,1-9.06,9h-33.3a9,9,0,0,1-9-9V758.69c0-8.19-1.38-11.77-6.21-16.21-3.46-3.16-8.23-3.72-10.67-3.78l-.63,0h-33.3a9,9,0,0,1-9.06-9V698.91a9,9,0,0,1,9.06-8.95h33.3m0-2h-33.3a11,11,0,0,0-11.06,10.95v30.87a11,11,0,0,0,11.06,11h33.3l.55,0h.11c2.25.07,6.37.58,9.29,3.26,4.42,4.06,5.56,7.09,5.56,14.73v26.86a11,11,0,0,0,11,11h33.3a11,11,0,0,0,11.06-11V754.68a11,11,0,0,0-11.06-11h-23c-5.62-.55-13.44-2.77-19-10.11l0,0,0,0c-6.8-8.32-6.8-12.89-6.8-19.21V698.91a11,11,0,0,0-11-10.95Z"/><path class="cls-1" d="M1458.28,636.66a9,9,0,0,1,9.06,9v30.87a9,9,0,0,1-9.06,9H1425a9,9,0,0,1-9-9V645.61a9,9,0,0,1,9-9h33.3m0-2H1425a11,11,0,0,0-11,11v30.87a11,11,0,0,0,11,11h33.3a11,11,0,0,0,11.06-11V645.61a11,11,0,0,0-11.06-11Z"/><path class="cls-2" d="M1356.06,676.48V645.61a9,9,0,0,1,9.06-9h33.3a9,9,0,0,1,9,9v26.86c0,8.19,1.38,11.77,6.21,16.21,3.46,3.16,8.23,3.72,10.67,3.78l.63,0h33.3a9,9,0,0,1,9.06,9v30.87a9,9,0,0,1-9.06,9H1425a9,9,0,0,1-9-9V716.82c0-6.49,0-11.6-7.25-20.47-6-8.05-14.63-10.35-20.46-10.91h-23.1A9,9,0,0,1,1356.06,676.48Z"/><path class="cls-1" d="M1355.42,737V706.12a9,9,0,0,1,9-9h33.3a9,9,0,0,1,9.06,9V737a9,9,0,0,1-9.06,9h-33.3A9,9,0,0,1,1355.42,737Z"/><path class="cls-2" d="M1337.91,697.17a9,9,0,0,1,9,9V733c0,8.19,1.38,11.77,6.21,16.21,3.46,3.16,8.23,3.72,10.67,3.78l.63,0h33.3a9,9,0,0,1,9.06,8.95v30.87a9,9,0,0,1-9.06,9h-33.3a9,9,0,0,1-9-9V777.33c0-6.49,0-11.6-7.25-20.47-6.05-8.05-14.63-10.35-20.46-10.91h-23.1a9,9,0,0,1-9.06-9V706.12a9,9,0,0,1,9.06-9h33.3m0-2h-33.3a11,11,0,0,0-11.06,11V737a11,11,0,0,0,11.06,11h23c5.62.55,13.44,2.76,19,10.11l0,0,0,0c6.79,8.32,6.79,12.89,6.79,19.21v15.43a11,11,0,0,0,11,11h33.3a11,11,0,0,0,11.06-11V761.89a11,11,0,0,0-11.06-10.95h-33.3l-.54,0h-.12c-2.24-.07-6.36-.58-9.29-3.26-4.41-4.06-5.56-7.09-5.56-14.73V706.12a11,11,0,0,0-11-11Z"/><path class="cls-1" d="M1277.4,636.66a9,9,0,0,1,9,9v30.87a9,9,0,0,1-9,9h-33.3a9,9,0,0,1-9.06-9V645.62a9,9,0,0,1,9.06-9h33.3m0-2h-33.3a11,11,0,0,0-11.06,11v30.87a11,11,0,0,0,11.06,11h33.3a11,11,0,0,0,11-11V645.62a11,11,0,0,0-11-11Z"/><path class="cls-2" d="M1346.32,645.62v30.87a9,9,0,0,1-9.06,9H1304a9,9,0,0,1-9-9V649.63c0-8.19-1.38-11.77-6.21-16.21-3.46-3.16-8.23-3.72-10.67-3.78l-.63,0h-33.3a9,9,0,0,1-9.06-8.95V589.85a9,9,0,0,1,9.06-9h33.3a9,9,0,0,1,9,9v15.43c0,6.49,0,11.6,7.25,20.47,6,8,14.63,10.35,20.46,10.91h23.1A9,9,0,0,1,1346.32,645.62Z"/><path class="cls-1" d="M1347,585.11V616a9,9,0,0,1-9,8.95h-33.3a9,9,0,0,1-9.06-8.95V585.11a9,9,0,0,1,9.06-9h33.3A9,9,0,0,1,1347,585.11Z"/><path class="cls-2" d="M1337.91,520.39a9,9,0,0,1,9,9v15.43c0,6.49,0,11.6,7.25,20.47,6,8,14.63,10.35,20.46,10.91h23.1a9,9,0,0,1,9.06,9V616a9,9,0,0,1-9.06,8.95h-33.3a9,9,0,0,1-9-8.95V589.12c0-8.19-1.38-11.77-6.21-16.21-3.46-3.16-8.23-3.72-10.67-3.78l-.63,0h-33.3a9,9,0,0,1-9.06-8.95V529.34a9,9,0,0,1,9.06-9h33.3m0-2h-33.3a11,11,0,0,0-11.06,11v30.87a11,11,0,0,0,11.06,10.95h33.3a4.93,4.93,0,0,0,.55,0h.11c2.25.06,6.37.58,9.3,3.25,4.41,4.06,5.55,7.09,5.55,14.74V616a11,11,0,0,0,11,10.95h33.3A11,11,0,0,0,1408.83,616V585.11a11,11,0,0,0-11.06-11h-23c-5.62-.56-13.44-2.77-19-10.12l0,0,0,0c-6.8-8.32-6.8-12.88-6.8-19.2V529.34a11,11,0,0,0-11-11Z"/><path class="cls-1" d="M1280.7,467.08a9,9,0,0,1,9.06,8.95V506.9a9,9,0,0,1-9.06,9h-33.3a9,9,0,0,1-9.05-9V476a9,9,0,0,1,9.05-8.95h33.3m0-2h-33.3A11,11,0,0,0,1236.35,476V506.9a11,11,0,0,0,11.05,11h33.3a11,11,0,0,0,11.06-11V476a11,11,0,0,0-11.06-10.95Z"/><path class="cls-2" d="M1178.48,506.9V476a9,9,0,0,1,9.06-8.95h33.3a9,9,0,0,1,9.05,8.95v26.86c0,8.19,1.38,11.77,6.21,16.21,3.46,3.16,8.23,3.72,10.67,3.78l.63,0h33.3a9,9,0,0,1,9.06,8.95v30.87a9,9,0,0,1-9.06,9h-33.3a9,9,0,0,1-9.05-9V547.24c0-6.49,0-11.6-7.25-20.47-6-8-14.63-10.35-20.46-10.91h-23.1A9,9,0,0,1,1178.48,506.9Z"/><path class="cls-1" d="M1177.84,567.41V536.54a9,9,0,0,1,9.05-8.95h33.3a9,9,0,0,1,9.06,8.95v30.87a9,9,0,0,1-9.06,9h-33.3A9,9,0,0,1,1177.84,567.41Z"/><path class="cls-2" d="M1160.33,527.59a9,9,0,0,1,9.05,8.95V563.4c0,8.19,1.38,11.77,6.21,16.21,3.46,3.16,8.23,3.72,10.67,3.78l.63,0h33.3a9,9,0,0,1,9.06,8.95v30.87a9,9,0,0,1-9.06,9h-33.3a9,9,0,0,1-9.05-9V607.75c0-6.49,0-11.6-7.25-20.47-6-8-14.63-10.35-20.46-10.91H1127a9,9,0,0,1-9.06-9V536.54a9,9,0,0,1,9.06-8.95h33.3m0-2H1127A11,11,0,0,0,1116,536.54v30.87a11,11,0,0,0,11.06,11h23c5.62.56,13.44,2.77,19,10.11l0,0,0,0c6.8,8.31,6.8,12.88,6.8,19.2v15.43a11,11,0,0,0,11.05,11h33.3a11,11,0,0,0,11.06-11V592.31a11,11,0,0,0-11.06-10.95h-33.3l-.55,0h-.11c-2.25-.06-6.37-.58-9.3-3.26-4.41-4-5.55-7.08-5.55-14.73V536.54a11,11,0,0,0-11.05-10.95Z"/><path class="cls-1" d="M1099.82,467.08a9,9,0,0,1,9,9v30.87a9,9,0,0,1-9,8.95h-33.3a9,9,0,0,1-9.07-8.95V476a9,9,0,0,1,9.07-9h33.3m0-2h-33.3a11,11,0,0,0-11.07,11v30.87a11,11,0,0,0,11.07,10.95h33.3a11,11,0,0,0,11-10.95V476a11,11,0,0,0-11-11Z"/><path class="cls-2" d="M1168.74,476v30.87a9,9,0,0,1-9.07,8.95h-33.29a9,9,0,0,1-9.05-8.95V480.05c0-8.19-1.39-11.77-6.21-16.21-3.46-3.16-8.23-3.72-10.68-3.78-.2,0-.41,0-.62,0h-33.3a9,9,0,0,1-9.07-8.95V420.27a9,9,0,0,1,9.07-8.95h33.3a9,9,0,0,1,9,8.95V435.7c0,6.49,0,11.6,7.25,20.47,6.05,8.05,14.63,10.35,20.46,10.91h23.09A9,9,0,0,1,1168.74,476Z"/><path class="cls-1" d="M1169.38,415.53V446.4a9,9,0,0,1-9.05,9H1127a9,9,0,0,1-9.06-9V415.53a9,9,0,0,1,9.06-9h33.3A9,9,0,0,1,1169.38,415.53Z"/><path class="cls-2" d="M1160.33,350.81a9,9,0,0,1,9.05,8.95v15.43c0,6.49,0,11.6,7.25,20.47,6,8,14.63,10.35,20.46,10.91h23.1a9,9,0,0,1,9.06,9V446.4a9,9,0,0,1-9.06,9h-33.3a9,9,0,0,1-9.05-9V419.54c0-8.19-1.38-11.77-6.21-16.21-3.46-3.16-8.23-3.72-10.67-3.78l-.63,0H1127a9,9,0,0,1-9.06-8.95V359.76a9,9,0,0,1,9.06-8.95h33.3m0-2H1127A11,11,0,0,0,1116,359.76v30.87A11,11,0,0,0,1127,401.58h33.3l.54,0h.12c2.24.07,6.36.58,9.29,3.26,4.41,4.06,5.56,7.09,5.56,14.73V446.4a11,11,0,0,0,11.05,11h33.3a11,11,0,0,0,11.06-11V415.53a11,11,0,0,0-11.06-11h-23c-5.62-.56-13.44-2.77-19-10.11l0,0,0,0c-6.79-8.31-6.79-12.88-6.79-19.2V359.76a11,11,0,0,0-11.05-10.95Z"/><path class="cls-1" d="M1103.11,297.51a9,9,0,0,1,9.06,8.95v30.87a9,9,0,0,1-9.06,9h-33.3a9,9,0,0,1-9-9V306.46a9,9,0,0,1,9-8.95h33.3m0-2h-33.3a11,11,0,0,0-11,10.95v30.87a11,11,0,0,0,11,11h33.3a11,11,0,0,0,11.06-11V306.46a11,11,0,0,0-11.06-10.95Z"/><path class="cls-2" d="M1000.89,337.33V306.46a9,9,0,0,1,9.06-8.95h33.3a9,9,0,0,1,9,8.95v26.86c0,8.19,1.38,11.77,6.21,16.21,3.46,3.16,8.23,3.72,10.67,3.78l.63,0h33.3a9,9,0,0,1,9.06,9V393.1a9,9,0,0,1-9.06,8.95h-33.3a9,9,0,0,1-9-8.95V377.67c0-6.49,0-11.6-7.25-20.47-6-8.05-14.63-10.35-20.46-10.91H1010A9,9,0,0,1,1000.89,337.33Z"/><path class="cls-1" d="M1000.25,397.84V367a9,9,0,0,1,9-9h33.3a9,9,0,0,1,9.06,9v30.87a9,9,0,0,1-9.06,9h-33.3A9,9,0,0,1,1000.25,397.84Z"/><path class="cls-2" d="M982.74,358a9,9,0,0,1,9,9v26.86c0,8.19,1.38,11.77,6.21,16.21,3.46,3.16,8.23,3.72,10.67,3.78l.63,0h33.3a9,9,0,0,1,9.06,8.95v30.87a9,9,0,0,1-9.06,8.95h-33.3a9,9,0,0,1-9-8.95V438.18c0-6.49,0-11.6-7.25-20.47-6-8-14.63-10.35-20.46-10.91h-23.1a9,9,0,0,1-9.06-9V367a9,9,0,0,1,9.06-9h33.3m0-2h-33.3a11,11,0,0,0-11.06,11v30.87a11,11,0,0,0,11.06,11h23c5.62.55,13.44,2.76,19,10.11l0,0,0,0c6.8,8.32,6.8,12.89,6.8,19.21v15.43a11,11,0,0,0,11,10.95h33.3a11,11,0,0,0,11.06-10.95V422.74a11,11,0,0,0-11.06-10.95h-33.3l-.55,0h-.11c-2.25-.06-6.37-.58-9.29-3.25-4.42-4.06-5.56-7.09-5.56-14.73V367a11,11,0,0,0-11-11Z"/><path class="cls-1" d="M922.23,297.51a9,9,0,0,1,9,9v30.87a9,9,0,0,1-9,9h-33.3a9,9,0,0,1-9.06-9V306.47a9,9,0,0,1,9.06-9h33.3m0-2h-33.3a11,11,0,0,0-11.06,11v30.87a11,11,0,0,0,11.06,11h33.3a11,11,0,0,0,11-11V306.47a11,11,0,0,0-11-11Z"/><path class="cls-2" d="M991.15,306.47v30.87a9,9,0,0,1-9.06,9h-33.3a9,9,0,0,1-9-9V310.48c0-8.19-1.38-11.77-6.21-16.21-3.46-3.16-8.23-3.72-10.67-3.78l-.63,0h-33.3a9,9,0,0,1-9.06-8.95V250.7a9,9,0,0,1,9.06-8.95h33.3a9,9,0,0,1,9,8.95v15.43c0,6.49,0,11.6,7.25,20.47,6.05,8,14.63,10.35,20.46,10.91h23.1A9,9,0,0,1,991.15,306.47Z"/><path class="cls-1" d="M991.79,246v30.87a9,9,0,0,1-9,8.95h-33.3a9,9,0,0,1-9.06-8.95V246a9,9,0,0,1,9.06-9h33.3A9,9,0,0,1,991.79,246Z"/><path class="cls-2" d="M982.74,181.23a9,9,0,0,1,9,9v15.43c0,6.49,0,11.6,7.25,20.47,6.05,8,14.63,10.35,20.46,10.91h23.1a9,9,0,0,1,9.06,9v30.87a9,9,0,0,1-9.06,8.95h-33.3a9,9,0,0,1-9-8.95V250c0-8.19-1.38-11.77-6.21-16.21-3.46-3.16-8.23-3.72-10.67-3.78l-.63,0h-33.3a9,9,0,0,1-9.06-8.95V190.18a9,9,0,0,1,9.06-9h33.3m0-2h-33.3a11,11,0,0,0-11.06,11v30.87A11,11,0,0,0,949.44,232h33.3l.54,0h.12c2.24.06,6.36.58,9.29,3.25,4.41,4.06,5.56,7.09,5.56,14.73v26.86a11,11,0,0,0,11,10.95h33.3a11,11,0,0,0,11.06-10.95V246a11,11,0,0,0-11.06-11h-23c-5.62-.55-13.43-2.76-19-10.11l0,0,0,0c-6.8-8.32-6.8-12.88-6.8-19.21V190.18a11,11,0,0,0-11-11Z"/><path class="cls-1" d="M925.52,127.93a9,9,0,0,1,9.06,8.95v30.87a9,9,0,0,1-9.06,9h-33.3a9,9,0,0,1-9.05-9V136.88a9,9,0,0,1,9.05-8.95h33.3m0-2h-33.3a11,11,0,0,0-11.05,10.95v30.87a11,11,0,0,0,11.05,11h33.3a11,11,0,0,0,11.06-11V136.88a11,11,0,0,0-11.06-10.95Z"/><path class="cls-2" d="M823.3,167.75V136.88a9,9,0,0,1,9.06-8.95h33.3a9,9,0,0,1,9.05,8.95v26.86c0,8.19,1.38,11.77,6.21,16.21,3.46,3.16,8.23,3.72,10.67,3.78l.63,0h33.3a9,9,0,0,1,9.06,9v30.87a9,9,0,0,1-9.06,8.95h-33.3a9,9,0,0,1-9.05-8.95V208.09c0-6.49,0-11.6-7.25-20.47-6-8.05-14.63-10.35-20.46-10.91h-23.1A9,9,0,0,1,823.3,167.75Z"/><path class="cls-1" d="M822.66,228.26V197.39a9,9,0,0,1,9.05-8.95H865a9,9,0,0,1,9.06,8.95v30.87a9,9,0,0,1-9.06,9h-33.3A9,9,0,0,1,822.66,228.26Z"/><path class="cls-2" d="M805.15,188.44a9,9,0,0,1,9.05,8.95v26.86c0,8.19,1.38,11.77,6.21,16.21,3.46,3.16,8.23,3.72,10.67,3.78l.63,0H865a9,9,0,0,1,9.06,8.95V284a9,9,0,0,1-9.06,9h-33.3a9,9,0,0,1-9.05-9V268.6c0-6.49,0-11.6-7.25-20.47-6-8-14.63-10.35-20.46-10.91h-23.1a9,9,0,0,1-9.06-9V197.39a9,9,0,0,1,9.06-8.95h33.3m0-2h-33.3a11,11,0,0,0-11.06,10.95v30.87a11,11,0,0,0,11.06,11h23c5.62.56,13.44,2.77,19,10.11l0,0,0,0c6.8,8.31,6.8,12.88,6.8,19.2V284a11,11,0,0,0,11.05,11H865a11,11,0,0,0,11.06-11V253.16A11,11,0,0,0,865,242.21h-33.3l-.55,0h-.11c-2.25-.07-6.36-.58-9.29-3.26-4.42-4-5.56-7.08-5.56-14.73V197.39a11,11,0,0,0-11.05-10.95Z"/><path class="cls-1" d="M1580.92,680.3a9,9,0,0,1,9,9v30.87a9,9,0,0,1-9,9h-33.3a9,9,0,0,1-9.06-9V689.26a9,9,0,0,1,9.06-9h33.3m0-2h-33.3a11,11,0,0,0-11.06,11v30.87a11,11,0,0,0,11.06,11h33.3a11,11,0,0,0,11-11V689.26a11,11,0,0,0-11-11Z"/><path class="cls-2" d="M1649.84,689.26v30.87a9,9,0,0,1-9.06,9h-33.3a9,9,0,0,1-9-9V693.27c0-8.19-1.38-11.77-6.21-16.21-3.46-3.16-8.23-3.72-10.67-3.78l-.63,0h-33.3a9,9,0,0,1-9.06-8.95V633.49a9,9,0,0,1,9.06-9h33.3a9,9,0,0,1,9,9v15.43c0,6.49,0,11.6,7.25,20.47,6,8.05,14.63,10.35,20.46,10.91h23.1A9,9,0,0,1,1649.84,689.26Z"/><path class="cls-1" d="M1650.48,628.75v30.87a9,9,0,0,1-9,9h-33.3a9,9,0,0,1-9.06-9V628.75a9,9,0,0,1,9.06-9h33.3A9,9,0,0,1,1650.48,628.75Z"/><path class="cls-2" d="M1641.43,564a9,9,0,0,1,9,9v15.43c0,6.49,0,11.6,7.25,20.47,6,8,14.63,10.35,20.46,10.91h23.1a9,9,0,0,1,9.06,9v30.87a9,9,0,0,1-9.06,9H1668a9,9,0,0,1-9-9V632.76c0-8.19-1.38-11.77-6.21-16.21-3.46-3.16-8.23-3.72-10.67-3.78l-.63,0h-33.3a9,9,0,0,1-9.06-8.95V573a9,9,0,0,1,9.06-9h33.3m0-2h-33.3a11,11,0,0,0-11.06,11v30.87a11,11,0,0,0,11.06,10.95h33.3l.55,0h.11c2.25.07,6.37.58,9.29,3.26,4.42,4.06,5.56,7.09,5.56,14.73v26.86a11,11,0,0,0,11,11h33.3a11,11,0,0,0,11.06-11V628.75a11,11,0,0,0-11.06-11h-23c-5.62-.55-13.44-2.77-19-10.11l0,0,0,0c-6.8-8.32-6.8-12.89-6.8-19.21V573a11,11,0,0,0-11-11Z"/><path class="cls-1" d="M1584.21,510.73a9,9,0,0,1,9.06,8.95v30.87a9,9,0,0,1-9.06,9h-33.3a9,9,0,0,1-9.05-9V519.68a9,9,0,0,1,9.05-8.95h33.3m0-2h-33.3a11,11,0,0,0-11.05,10.95v30.87a11,11,0,0,0,11.05,11h33.3a11,11,0,0,0,11.06-11V519.68a11,11,0,0,0-11.06-10.95Z"/><path class="cls-2" d="M1482,550.55V519.68a9,9,0,0,1,9.06-8.95h33.3a9,9,0,0,1,9.05,8.95v26.86c0,8.19,1.38,11.77,6.21,16.21,3.46,3.16,8.23,3.72,10.67,3.78l.63,0h33.3a9,9,0,0,1,9.06,9v30.87a9,9,0,0,1-9.06,8.95h-33.3a9,9,0,0,1-9.05-8.95V590.89c0-6.49,0-11.6-7.25-20.47-6-8-14.63-10.35-20.46-10.91h-23.1A9,9,0,0,1,1482,550.55Z"/><path class="cls-1" d="M1481.35,611.06V580.19a9,9,0,0,1,9.05-9h33.3a9,9,0,0,1,9.06,9v30.87a9,9,0,0,1-9.06,9h-33.3A9,9,0,0,1,1481.35,611.06Z"/><path class="cls-2" d="M1463.84,571.24a9,9,0,0,1,9.05,9v26.86c0,8.19,1.38,11.77,6.21,16.21,3.46,3.16,8.23,3.72,10.67,3.78l.63,0h33.3a9,9,0,0,1,9.06,9v30.87a9,9,0,0,1-9.06,8.95h-33.3a9,9,0,0,1-9.05-8.95V651.4c0-6.49,0-11.6-7.25-20.47-6-8-14.63-10.35-20.46-10.91h-23.1a9,9,0,0,1-9.06-9V580.19a9,9,0,0,1,9.06-9h33.3m0-2h-33.3a11,11,0,0,0-11.06,11v30.87a11,11,0,0,0,11.06,11h23c5.62.55,13.44,2.76,19,10.11l0,0,0,0c6.79,8.32,6.79,12.89,6.79,19.21v15.43a11,11,0,0,0,11.05,10.95h33.3a11,11,0,0,0,11.06-10.95V636a11,11,0,0,0-11.06-11h-33.3l-.54,0h-.12c-2.24-.07-6.36-.59-9.29-3.26-4.41-4.06-5.56-7.09-5.56-14.73V580.19a11,11,0,0,0-11.05-11Z"/><path class="cls-1" d="M1403.33,510.73a9,9,0,0,1,9.05,9v30.87a9,9,0,0,1-9.05,9H1370a9,9,0,0,1-9.06-9V519.69a9,9,0,0,1,9.06-9h33.3m0-2H1370a11,11,0,0,0-11.06,11v30.87a11,11,0,0,0,11.06,11h33.3a11,11,0,0,0,11.05-11V519.69a11,11,0,0,0-11.05-11Z"/><path class="cls-2" d="M1472.25,519.69v30.87a9,9,0,0,1-9.06,9h-33.3a9,9,0,0,1-9.05-9V523.7c0-8.19-1.38-11.77-6.21-16.21-3.46-3.16-8.23-3.72-10.67-3.78l-.63,0H1370a9,9,0,0,1-9.06-8.95V463.92A9,9,0,0,1,1370,455h33.3a9,9,0,0,1,9.05,8.95v15.43c0,6.49,0,11.6,7.25,20.47,6,8.05,14.63,10.35,20.46,10.91h23.1A9,9,0,0,1,1472.25,519.69Z"/><path class="cls-1" d="M1472.89,459.18v30.87a9,9,0,0,1-9.05,8.95h-33.3a9,9,0,0,1-9.06-8.95V459.18a9,9,0,0,1,9.06-9h33.3A9,9,0,0,1,1472.89,459.18Z"/><path class="cls-2" d="M1463.84,394.46a9,9,0,0,1,9.05,9v15.43c0,6.49,0,11.6,7.25,20.47,6,8.05,14.63,10.35,20.46,10.91h23.1a9,9,0,0,1,9.06,9v30.87a9,9,0,0,1-9.06,8.95h-33.3a9,9,0,0,1-9.05-8.95V463.19c0-8.19-1.38-11.77-6.21-16.21-3.46-3.16-8.23-3.72-10.67-3.78l-.63,0h-33.3a9,9,0,0,1-9.06-9V403.41a9,9,0,0,1,9.06-9h33.3m0-2h-33.3a11,11,0,0,0-11.06,11v30.87a11,11,0,0,0,11.06,11h33.3a4.93,4.93,0,0,0,.55,0h.11c2.25.06,6.37.58,9.3,3.25,4.41,4.06,5.55,7.09,5.55,14.74v26.86A11,11,0,0,0,1490.4,501h33.3a11,11,0,0,0,11.06-10.95V459.18a11,11,0,0,0-11.06-11h-23c-5.62-.56-13.44-2.77-19-10.12l0,0,0,0c-6.8-8.32-6.8-12.88-6.8-19.2V403.41a11,11,0,0,0-11.05-11Z"/><path class="cls-1" d="M1406.63,341.15a9,9,0,0,1,9.06,9V381a9,9,0,0,1-9.06,9h-33.3a9,9,0,0,1-9-9V350.1a9,9,0,0,1,9-9h33.3m0-2h-33.3a11,11,0,0,0-11,11V381a11,11,0,0,0,11,11h33.3a11,11,0,0,0,11.06-11V350.1a11,11,0,0,0-11.06-11Z"/><path class="cls-2" d="M1304.41,381V350.1a9,9,0,0,1,9.06-9h33.3a9,9,0,0,1,9,9V377c0,8.19,1.38,11.77,6.21,16.21,3.46,3.16,8.23,3.72,10.67,3.78l.63,0h33.3a9,9,0,0,1,9.06,8.95v30.87a9,9,0,0,1-9.06,8.95h-33.3a9,9,0,0,1-9-8.95V421.31c0-6.49,0-11.6-7.25-20.47-6-8-14.63-10.35-20.46-10.91h-23.1A9,9,0,0,1,1304.41,381Z"/><path class="cls-1" d="M1303.77,441.48V410.61a9,9,0,0,1,9-8.95h33.3a9,9,0,0,1,9.06,8.95v30.87a9,9,0,0,1-9.06,9h-33.3A9,9,0,0,1,1303.77,441.48Z"/><path class="cls-2" d="M1286.26,401.66a9,9,0,0,1,9,8.95v26.86c0,8.19,1.38,11.77,6.21,16.21,3.46,3.16,8.23,3.72,10.67,3.78l.63,0h33.3a9,9,0,0,1,9.06,8.95v30.87a9,9,0,0,1-9.06,8.95h-33.3a9,9,0,0,1-9-8.95V481.82c0-6.49,0-11.6-7.25-20.47-6-8.05-14.63-10.35-20.46-10.91H1253a9,9,0,0,1-9.06-9V410.61a9,9,0,0,1,9.06-8.95h33.3m0-2H1253a11,11,0,0,0-11.06,10.95v30.87a11,11,0,0,0,11.06,11h23c5.62.56,13.44,2.77,19,10.11l0,0,0,0c6.8,8.32,6.8,12.88,6.8,19.2v15.43a11,11,0,0,0,11,10.95h33.3a11,11,0,0,0,11.06-10.95V466.38a11,11,0,0,0-11.06-10.95h-33.3l-.55,0h-.11c-2.25-.06-6.37-.58-9.3-3.26-4.41-4.05-5.55-7.08-5.55-14.73V410.61a11,11,0,0,0-11-10.95Z"/><path class="cls-1" d="M1225.74,341.15a9,9,0,0,1,9.06,9V381a9,9,0,0,1-9.06,8.95h-33.3a9,9,0,0,1-9.06-8.95V350.11a9,9,0,0,1,9.06-9h33.3m0-2h-33.3a11,11,0,0,0-11.06,11V381a11,11,0,0,0,11.06,10.95h33.3A11,11,0,0,0,1236.8,381V350.11a11,11,0,0,0-11.06-11Z"/><path class="cls-2" d="M1294.67,350.11V381a9,9,0,0,1-9.07,8.95h-33.29a9,9,0,0,1-9-8.95V354.12c0-8.19-1.39-11.77-6.21-16.21-3.46-3.16-8.23-3.72-10.68-3.78-.2,0-.41,0-.62,0h-33.3a9,9,0,0,1-9.06-9V294.34a9,9,0,0,1,9.06-8.95h33.3a9,9,0,0,1,9,8.95v15.43c0,6.49,0,11.6,7.25,20.47,6,8.05,14.63,10.35,20.46,10.91h23.09A9,9,0,0,1,1294.67,350.11Z"/><path class="cls-1" d="M1295.31,289.6v30.87a9,9,0,0,1-9,8.95H1253a9,9,0,0,1-9.06-8.95V289.6a9,9,0,0,1,9.06-9h33.3A9,9,0,0,1,1295.31,289.6Z"/><path class="cls-2" d="M1286.26,224.88a9,9,0,0,1,9,9v15.43c0,6.49,0,11.6,7.25,20.47,6,8,14.63,10.35,20.46,10.91h23.1a9,9,0,0,1,9.06,9v30.87a9,9,0,0,1-9.06,8.95h-33.3a9,9,0,0,1-9-8.95V293.61c0-8.19-1.38-11.77-6.21-16.21-3.46-3.16-8.23-3.72-10.67-3.78l-.63,0H1253a9,9,0,0,1-9.06-8.95V233.83a9,9,0,0,1,9.06-9h33.3m0-2H1253a11,11,0,0,0-11.06,11V264.7A11,11,0,0,0,1253,275.65h33.3l.54,0h.12c2.24.07,6.36.58,9.29,3.26,4.41,4.06,5.56,7.09,5.56,14.73v26.86a11,11,0,0,0,11,10.95h33.3a11,11,0,0,0,11.06-10.95V289.6a11,11,0,0,0-11.06-11h-23c-5.62-.56-13.44-2.77-19-10.11l0,0,0,0c-6.79-8.31-6.79-12.88-6.79-19.2V233.83a11,11,0,0,0-11-11Z"/><path class="cls-1" d="M1229,171.58a9,9,0,0,1,9.06,8.95V211.4a9,9,0,0,1-9.06,9h-33.3a9,9,0,0,1-9-9V180.53a9,9,0,0,1,9-8.95H1229m0-2h-33.3a11,11,0,0,0-11,10.95V211.4a11,11,0,0,0,11,11H1229a11,11,0,0,0,11.06-11V180.53A11,11,0,0,0,1229,169.58Z"/><path class="cls-2" d="M1126.82,211.4V180.53a9,9,0,0,1,9.06-8.95h33.3a9,9,0,0,1,9,8.95v26.86c0,8.19,1.38,11.77,6.21,16.21,3.46,3.16,8.23,3.72,10.67,3.78l.63,0H1229a9,9,0,0,1,9.06,9v30.87a9,9,0,0,1-9.06,8.95h-33.3a9,9,0,0,1-9-8.95V251.74c0-6.49,0-11.6-7.25-20.47-6-8.05-14.63-10.35-20.46-10.91h-23.1A9,9,0,0,1,1126.82,211.4Z"/><path class="cls-1" d="M1126.18,271.91V241a9,9,0,0,1,9-8.95h33.3a9,9,0,0,1,9.06,8.95v30.87a9,9,0,0,1-9.06,9h-33.3A9,9,0,0,1,1126.18,271.91Z"/><path class="cls-2" d="M1108.67,232.09a9,9,0,0,1,9,8.95V267.9c0,8.19,1.38,11.77,6.21,16.21,3.46,3.16,8.23,3.72,10.67,3.78l.63,0h33.3a9,9,0,0,1,9.06,8.95v30.87a9,9,0,0,1-9.06,8.95h-33.3a9,9,0,0,1-9-8.95V312.25c0-6.49,0-11.6-7.25-20.47-6-8-14.63-10.35-20.46-10.91h-23.1a9,9,0,0,1-9.06-9V241a9,9,0,0,1,9.06-8.95h33.3m0-2h-33.3A11,11,0,0,0,1064.31,241v30.87a11,11,0,0,0,11.06,11h23c5.62.55,13.44,2.76,19,10.11l0,0,0,0c6.8,8.32,6.8,12.89,6.8,19.21v15.43a11,11,0,0,0,11,10.95h33.3a11,11,0,0,0,11.06-10.95V296.81a11,11,0,0,0-11.06-10.95h-33.3l-.55,0h-.11c-2.25-.06-6.37-.58-9.29-3.25-4.42-4.06-5.56-7.09-5.56-14.73V241a11,11,0,0,0-11-10.95Z"/><path class="cls-1" d="M1048.16,171.58a9,9,0,0,1,9,9v30.87a9,9,0,0,1-9,9h-33.3a9,9,0,0,1-9.06-9V180.54a9,9,0,0,1,9.06-9h33.3m0-2h-33.3a11,11,0,0,0-11.06,11v30.87a11,11,0,0,0,11.06,11h33.3a11,11,0,0,0,11-11V180.54a11,11,0,0,0-11-11Z"/><path class="cls-2" d="M1117.08,180.54v30.87a9,9,0,0,1-9.06,9h-33.3a9,9,0,0,1-9-9V184.55c0-8.19-1.38-11.77-6.21-16.21-3.46-3.16-8.23-3.72-10.67-3.78l-.63,0h-33.3a9,9,0,0,1-9.06-9V124.77a9,9,0,0,1,9.06-9h33.3a9,9,0,0,1,9,9V140.2c0,6.49,0,11.6,7.25,20.47,6,8.05,14.63,10.35,20.46,10.91H1108A9,9,0,0,1,1117.08,180.54Z"/><path class="cls-1" d="M1117.72,120v30.87a9,9,0,0,1-9,9h-33.3a9,9,0,0,1-9.06-9V120a9,9,0,0,1,9.06-9h33.3A9,9,0,0,1,1117.72,120Z"/><path class="cls-2" d="M1108.67,55.3a9,9,0,0,1,9,9V79.68c0,6.49,0,11.6,7.25,20.47,6,8,14.63,10.35,20.46,10.91h23.1a9,9,0,0,1,9.06,9v30.87a9,9,0,0,1-9.06,9h-33.3a9,9,0,0,1-9-9V124c0-8.19-1.38-11.77-6.21-16.21-3.46-3.16-8.23-3.72-10.67-3.78-.21,0-.42,0-.63,0h-33.3a9,9,0,0,1-9.06-8.95V64.25a9,9,0,0,1,9.06-9h33.3m0-2h-33.3a11,11,0,0,0-11.06,11V95.12a11,11,0,0,0,11.06,10.95h33.3l.54,0h.12c2.24.06,6.36.58,9.29,3.25,4.41,4.06,5.56,7.09,5.56,14.73v26.86a11,11,0,0,0,11,11h33.3a11,11,0,0,0,11.06-11V120a11,11,0,0,0-11.06-11h-23c-5.62-.55-13.43-2.76-19-10.11l0,0,0,0c-6.8-8.32-6.8-12.89-6.8-19.21V64.25a11,11,0,0,0-11-11Z"/><path class="cls-1" d="M1051.45,2a9,9,0,0,1,9.06,9V41.82a9,9,0,0,1-9.06,9h-33.3a9,9,0,0,1-9-9V11a9,9,0,0,1,9-8.95h33.3m0-2h-33.3a11,11,0,0,0-11,11V41.82a11,11,0,0,0,11,11h33.3a11,11,0,0,0,11.06-11V11A11,11,0,0,0,1051.45,0Z"/><path class="cls-2" d="M949.23,41.82V11A9,9,0,0,1,958.29,2h33.3a9,9,0,0,1,9,9V37.81c0,8.19,1.38,11.77,6.21,16.21,3.46,3.16,8.23,3.72,10.67,3.78l.63,0h33.3a9,9,0,0,1,9.06,8.95V97.59a9,9,0,0,1-9.06,9h-33.3a9,9,0,0,1-9-9V82.16c0-6.49,0-11.6-7.25-20.47-6.05-8-14.63-10.35-20.46-10.91h-23.1A9,9,0,0,1,949.23,41.82Z"/><path class="cls-1" d="M948.59,102.33V71.46a9,9,0,0,1,9-8.95h33.3a9,9,0,0,1,9.06,8.95v30.87a9,9,0,0,1-9.06,9h-33.3A9,9,0,0,1,948.59,102.33Z"/><path class="cls-2" d="M931.08,62.51a9,9,0,0,1,9,8.95V98.32c0,8.19,1.38,11.77,6.21,16.21,3.46,3.16,8.23,3.72,10.67,3.78.21,0,.42,0,.63,0h33.3a9,9,0,0,1,9.06,9V158.1a9,9,0,0,1-9.06,9h-33.3a9,9,0,0,1-9-9V142.67c0-6.49,0-11.6-7.25-20.47-6.05-8-14.63-10.35-20.46-10.91h-23.1a9,9,0,0,1-9.06-9V71.46a9,9,0,0,1,9.06-8.95h33.3m0-2h-33.3a11,11,0,0,0-11.06,10.95v30.87a11,11,0,0,0,11.06,11h23c5.62.56,13.44,2.77,19,10.11l0,0,0,0c6.8,8.31,6.8,12.88,6.8,19.2V158.1a11,11,0,0,0,11,11h33.3a11,11,0,0,0,11.06-11V127.23a11,11,0,0,0-11.06-11h-33.3l-.55,0H957c-2.25-.07-6.36-.58-9.29-3.26-4.42-4-5.56-7.08-5.56-14.73V71.46a11,11,0,0,0-11-10.95Z"/></g></g></svg>