<svg xmlns="http://www.w3.org/2000/svg" xmlns:xlink="http://www.w3.org/1999/xlink" viewBox="0 0 2230.47 1805.62"><defs><style>.cls-1{fill:none;}.cls-2{fill:#e31318;}.cls-3{fill:#c1bebd;}.cls-4{fill:url(#Nouveau_motif_6);}</style><pattern id="Nouveau_motif_6" data-name="Nouveau motif 6" width="255.12" height="195.59" patternUnits="userSpaceOnUse" viewBox="0 0 255.12 195.59"><rect class="cls-1" width="255.12" height="195.59"/><path class="cls-2" d="M229.64,194.91a9.11,9.11,0,0,0-6.44,2.67l-16.33,16.34a29.1,29.1,0,0,1-18.4,7,27.56,27.56,0,0,1-3.78-.27c-11.4-1.15-15-4.76-19.6-9.35l-10.91-10.91a8.91,8.91,0,0,0-6.3-2.6,9.07,9.07,0,0,0-6.43,2.67L117.9,224a9,9,0,0,0-.08,12.73l21.83,21.83a8.9,8.9,0,0,0,6.3,2.6,9.06,9.06,0,0,0,6.44-2.68L175.93,235c.15-.15.29-.31.43-.47,1.77-1.68,5.54-4.66,10.22-4.87l1.36,0c5.71,0,9.12,1.72,14.49,7.1l19,19a8.87,8.87,0,0,0,6.3,2.6,9.07,9.07,0,0,0,6.43-2.67l23.55-23.55a9,9,0,0,0,.08-12.73L236,197.51a8.88,8.88,0,0,0-6.31-2.6m0-2a10.84,10.84,0,0,1,7.72,3.19l21.83,21.83a11,11,0,0,1-.08,15.56L235.57,257a11,11,0,0,1-7.85,3.26,10.83,10.83,0,0,1-7.71-3.18l-19-19c-5.06-5.05-8-6.51-13.08-6.51l-1.27,0c-4,.18-7.24,2.72-8.87,4.26l-.08.09c-.12.13-.24.27-.37.4L153.8,259.93a11,11,0,0,1-7.85,3.26,10.83,10.83,0,0,1-7.71-3.18l-21.83-21.83a11,11,0,0,1,.08-15.57L140,199.07a11,11,0,0,1,7.84-3.26,10.8,10.8,0,0,1,7.71,3.19l10.91,10.91c4.47,4.47,7.7,7.69,18.39,8.77H185a25.86,25.86,0,0,0,3.5.25,27.09,27.09,0,0,0,17.06-6.51l16.26-16.26a11,11,0,0,1,7.85-3.26Z"/><path class="cls-2" d="M-25.48,194.91a9.07,9.07,0,0,0-6.43,2.67l-16.34,16.34a29.1,29.1,0,0,1-18.4,7,27.56,27.56,0,0,1-3.78-.27c-11.4-1.15-15-4.76-19.6-9.35l-10.91-10.91a8.9,8.9,0,0,0-6.3-2.6,9.07,9.07,0,0,0-6.43,2.67L-137.22,224a9,9,0,0,0-.07,12.73l21.83,21.83a8.86,8.86,0,0,0,6.29,2.6,9.06,9.06,0,0,0,6.44-2.68L-79.18,235c.15-.15.28-.31.42-.47,1.77-1.68,5.54-4.66,10.22-4.87l1.37,0c5.7,0,9.11,1.72,14.48,7.1l19,19a8.83,8.83,0,0,0,6.29,2.6A9.07,9.07,0,0,0-21,255.62L2.58,232.07a9,9,0,0,0,.08-12.73l-21.83-21.83a8.88,8.88,0,0,0-6.31-2.6m0-2a10.8,10.8,0,0,1,7.72,3.19L4.07,217.93A11,11,0,0,1,4,233.49L-19.55,257a11,11,0,0,1-7.85,3.26,10.85,10.85,0,0,1-7.71-3.18l-19-19c-5.06-5.05-8-6.51-13.07-6.51l-1.28,0c-4,.18-7.24,2.72-8.87,4.26l-.08.09c-.12.13-.24.27-.37.4l-23.55,23.55a11,11,0,0,1-7.85,3.26,10.83,10.83,0,0,1-7.71-3.18l-21.83-21.83a11,11,0,0,1,.08-15.57l23.55-23.54a11,11,0,0,1,7.84-3.26A10.8,10.8,0,0,1-99.53,199l10.91,10.91c4.47,4.47,7.7,7.69,18.39,8.77h.08a25.86,25.86,0,0,0,3.5.25,27.09,27.09,0,0,0,17.06-6.51l16.26-16.26a11,11,0,0,1,7.85-3.26Z"/><path class="cls-2" d="M274.29,108.09,252.46,86.27a9,9,0,0,1,.08-12.74L276.09,50a9,9,0,0,1,12.73-.07l19,19c5.79,5.79,9.3,7.34,15.85,7.07,4.68-.21,8.45-3.19,10.22-4.87l.42-.47,23.55-23.55A9,9,0,0,1,370.59,47l21.82,21.83a9,9,0,0,1-.07,12.74l-23.55,23.54a9,9,0,0,1-12.73.08L345.15,94.28c-4.59-4.58-8.2-8.2-19.6-9.34-10-1.42-17.66,3-22.18,6.75L287,108A9,9,0,0,1,274.29,108.09Z"/><path class="cls-2" d="M364.29,130a9.11,9.11,0,0,0-6.44,2.68L334.3,156.21l-.42.47c-1.77,1.68-5.54,4.66-10.22,4.87l-1.37,0c-5.7,0-9.11-1.72-14.48-7.1l-19-19a8.87,8.87,0,0,0-6.3-2.6,9.07,9.07,0,0,0-6.43,2.67l-23.55,23.55a9,9,0,0,0-.08,12.73l21.83,21.83a8.88,8.88,0,0,0,6.31,2.6A9.07,9.07,0,0,0,287,193.6l16.34-16.34a29.1,29.1,0,0,1,18.4-7,27.56,27.56,0,0,1,3.78.27c11.4,1.15,15,4.76,19.6,9.35l10.91,10.91a8.9,8.9,0,0,0,6.3,2.6,9.07,9.07,0,0,0,6.43-2.67l23.55-23.55a9,9,0,0,0,.07-12.73l-21.82-21.83a8.9,8.9,0,0,0-6.3-2.6m0-2a10.8,10.8,0,0,1,7.71,3.19L393.83,153a11,11,0,0,1-.08,15.57L370.2,192.11a11,11,0,0,1-7.84,3.26,10.8,10.8,0,0,1-7.71-3.19l-10.91-10.91c-4.47-4.47-7.7-7.69-18.39-8.77h-.08a25.86,25.86,0,0,0-3.5-.25,27.15,27.15,0,0,0-17.06,6.51L288.45,195a11,11,0,0,1-7.85,3.26,10.82,10.82,0,0,1-7.72-3.19l-21.83-21.82a10.83,10.83,0,0,1-3.18-7.78,11,11,0,0,1,3.26-7.79l23.54-23.54a11,11,0,0,1,7.85-3.26,10.83,10.83,0,0,1,7.71,3.18l19,19c5.06,5.05,8,6.51,13.07,6.51l1.28,0c4-.17,7.24-2.72,8.87-4.26l.08-.09c.12-.14.24-.27.37-.4l23.55-23.55a11,11,0,0,1,7.85-3.26Z"/><path class="cls-3" d="M187.3,127.22a9.05,9.05,0,0,0-6.42,2.67l-23.55,23.55a9,9,0,0,0-.07,12.74L179.09,188a8.87,8.87,0,0,0,6.29,2.6,9.09,9.09,0,0,0,6.44-2.68l23.55-23.54a9,9,0,0,0,.07-12.73l-21.83-21.83a8.89,8.89,0,0,0-6.31-2.61m0-2a10.85,10.85,0,0,1,7.73,3.2l21.83,21.82a11,11,0,0,1-.08,15.56l-23.54,23.55a11,11,0,0,1-7.86,3.26,10.81,10.81,0,0,1-7.71-3.19L155.85,167.6a10.82,10.82,0,0,1-3.19-7.79,11,11,0,0,1,3.26-7.78l23.54-23.55a11,11,0,0,1,7.84-3.26Z"/><path class="cls-2" d="M236,87.5l21.83,21.82a9,9,0,0,1-.08,12.74l-23.55,23.55a9,9,0,0,1-12.73.07l-19-19c-5.79-5.79-9.3-7.34-15.85-7.07-4.68.21-8.45,3.19-10.22,4.87-.14.16-.28.32-.43.47L152.39,148.5a9,9,0,0,1-12.74.08l-21.83-21.83A9,9,0,0,1,117.9,114l23.55-23.54a9,9,0,0,1,12.73-.08l10.91,10.92c4.59,4.58,8.2,8.2,19.6,9.34,10,1.42,17.66-3,22.18-6.75L223.2,87.57A9,9,0,0,1,236,87.5Z"/><path class="cls-3" d="M193.61,44.25l21.83,21.83a9,9,0,0,1-.07,12.73l-23.55,23.55a9,9,0,0,1-12.73.08L157.26,80.61a9,9,0,0,1,.07-12.74l23.55-23.55A9,9,0,0,1,193.61,44.25Z"/><path class="cls-2" d="M229.64-.68A9.11,9.11,0,0,0,223.2,2L206.87,18.33a29.1,29.1,0,0,1-18.4,7,27.56,27.56,0,0,1-3.78-.27c-11.4-1.15-15-4.76-19.6-9.35L154.18,4.82a8.91,8.91,0,0,0-6.3-2.6,9.07,9.07,0,0,0-6.43,2.67L117.9,28.44a9,9,0,0,0-.08,12.73L139.65,63a8.9,8.9,0,0,0,6.3,2.6,9.11,9.11,0,0,0,6.44-2.68l23.54-23.54c.15-.15.29-.32.43-.47,1.77-1.68,5.54-4.66,10.22-4.87l1.36,0c5.71,0,9.12,1.72,14.49,7.1l19,19a8.87,8.87,0,0,0,6.3,2.6A9.07,9.07,0,0,0,234.15,60L257.7,36.48a9,9,0,0,0,.08-12.73L236,1.92a8.88,8.88,0,0,0-6.31-2.6m0-2A10.84,10.84,0,0,1,237.36.51l21.83,21.82a11,11,0,0,1-.08,15.57L235.57,61.44a11.06,11.06,0,0,1-7.85,3.26A10.83,10.83,0,0,1,220,61.52l-19-19C196,37.47,193,36,187.94,36l-1.27,0c-4,.17-7.24,2.72-8.87,4.26l-.08.09c-.12.13-.24.27-.37.4L153.8,64.34A11,11,0,0,1,146,67.6a10.8,10.8,0,0,1-7.71-3.19L116.41,42.59A11,11,0,0,1,116.49,27L140,3.48A11,11,0,0,1,147.88.22a10.8,10.8,0,0,1,7.71,3.19L166.5,14.32c4.47,4.47,7.7,7.69,18.39,8.77H185a25.86,25.86,0,0,0,3.5.25,27.15,27.15,0,0,0,17.06-6.51L221.79.58a11,11,0,0,1,7.85-3.26Z"/><path class="cls-3" d="M69.74,5A9.09,9.09,0,0,0,63.3,7.66L39.75,31.2a9,9,0,0,0-.07,12.73L61.51,65.76a8.89,8.89,0,0,0,6.31,2.61,9.05,9.05,0,0,0,6.42-2.67L97.79,42.15a9,9,0,0,0,.07-12.74L76,7.58A8.87,8.87,0,0,0,69.74,5m0-2a10.81,10.81,0,0,1,7.71,3.19L99.28,28a11,11,0,0,1-.08,15.57L75.66,67.11a11,11,0,0,1-7.84,3.26,10.87,10.87,0,0,1-7.73-3.2L38.27,45.35a10.84,10.84,0,0,1-3.19-7.78,11,11,0,0,1,3.26-7.78L61.88,6.24A11.08,11.08,0,0,1,69.74,3Z"/><path class="cls-2" d="M19.17,108.09-2.65,86.27a9,9,0,0,1,.07-12.74L21,50a9,9,0,0,1,12.73-.07l19,19C58.48,74.7,62,76.25,68.54,76c4.69-.21,8.45-3.19,10.22-4.87.14-.16.28-.32.43-.47l23.54-23.55A9,9,0,0,1,115.47,47L137.3,68.84a9,9,0,0,1-.08,12.74l-23.55,23.54a9,9,0,0,1-12.73.08L90,94.28c-4.59-4.58-8.2-8.2-19.6-9.34-10-1.42-17.66,3-22.18,6.75L31.92,108A9,9,0,0,1,19.17,108.09Z"/><path class="cls-3" d="M61.51,151.34,39.68,129.51a9,9,0,0,1,.07-12.73L63.3,93.23A9,9,0,0,1,76,93.15L97.86,115a9,9,0,0,1-.07,12.74L74.24,151.27A9,9,0,0,1,61.51,151.34Z"/><path class="cls-2" d="M109.17,130a9.12,9.12,0,0,0-6.44,2.68L79.19,156.21c-.15.15-.29.32-.43.47-1.77,1.68-5.53,4.66-10.22,4.87l-1.36,0c-5.71,0-9.11-1.72-14.49-7.1l-19-19a8.85,8.85,0,0,0-6.3-2.6A9.07,9.07,0,0,0,21,135.56L-2.58,159.11a9,9,0,0,0-.07,12.73l21.82,21.83a8.88,8.88,0,0,0,6.31,2.6,9.1,9.1,0,0,0,6.44-2.67l16.33-16.34a29.1,29.1,0,0,1,18.4-7,27.56,27.56,0,0,1,3.78.27c11.4,1.15,15,4.76,19.6,9.35l10.91,10.91a8.91,8.91,0,0,0,6.3,2.6,9.07,9.07,0,0,0,6.43-2.67l23.55-23.55a9,9,0,0,0,.08-12.73l-21.83-21.83a8.88,8.88,0,0,0-6.3-2.6m0-2a10.8,10.8,0,0,1,7.71,3.19L138.71,153a11,11,0,0,1-.08,15.57l-23.54,23.54a11,11,0,0,1-7.85,3.26,10.8,10.8,0,0,1-7.71-3.19L88.62,181.27c-4.47-4.47-7.7-7.69-18.39-8.77h-.08a25.75,25.75,0,0,0-3.5-.25,27.09,27.09,0,0,0-17.05,6.51L33.33,195a11,11,0,0,1-7.85,3.26,10.84,10.84,0,0,1-7.72-3.19L-4.07,173.26a10.83,10.83,0,0,1-3.18-7.78A11.08,11.08,0,0,1-4,157.69l23.55-23.54a11,11,0,0,1,7.84-3.26,10.83,10.83,0,0,1,7.71,3.18l19,19c5,5.05,8,6.51,13.07,6.51l1.27,0c4-.17,7.24-2.72,8.88-4.26l.07-.09c.12-.14.24-.27.37-.4l23.55-23.55a11,11,0,0,1,7.85-3.26Z"/><path class="cls-2" d="M-19.17,87.5,2.66,109.32a9,9,0,0,1-.08,12.74L-21,145.61a9,9,0,0,1-12.72.07l-19-19c-5.79-5.79-9.3-7.34-15.85-7.07-4.68.21-8.45,3.19-10.22,4.87-.14.16-.27.32-.42.47l-23.55,23.55a9,9,0,0,1-12.73.08l-21.83-21.83a9,9,0,0,1,.07-12.74l23.55-23.54a9,9,0,0,1,12.73-.08L-90,101.31c4.59,4.58,8.2,8.2,19.6,9.34,10,1.42,17.66-3,22.18-6.75l16.34-16.33A9,9,0,0,1-19.17,87.5Z"/><path class="cls-2" d="M-25.48-.68A9.07,9.07,0,0,0-31.91,2L-48.25,18.33a29.1,29.1,0,0,1-18.4,7,27.56,27.56,0,0,1-3.78-.27c-11.4-1.15-15-4.76-19.6-9.35L-100.94,4.82a8.9,8.9,0,0,0-6.3-2.6,9.07,9.07,0,0,0-6.43,2.67l-23.55,23.55a9,9,0,0,0-.07,12.73L-115.46,63a8.86,8.86,0,0,0,6.29,2.6,9.11,9.11,0,0,0,6.44-2.68l23.55-23.54c.15-.15.28-.32.42-.47C-77,37.23-73.22,34.25-68.54,34l1.37,0c5.7,0,9.11,1.72,14.48,7.1l19,19a8.83,8.83,0,0,0,6.29,2.6A9.07,9.07,0,0,0-21,60L2.58,36.48a9,9,0,0,0,.08-12.73L-19.17,1.92a8.88,8.88,0,0,0-6.31-2.6m0-2A10.8,10.8,0,0,1-17.76.51L4.07,22.33A11,11,0,0,1,4,37.9L-19.55,61.44A11,11,0,0,1-27.4,64.7a10.85,10.85,0,0,1-7.71-3.18l-19-19c-5.06-5.05-8-6.51-13.07-6.51l-1.28,0c-4,.17-7.24,2.72-8.87,4.26l-.08.09c-.12.13-.24.27-.37.4l-23.55,23.55a11,11,0,0,1-7.85,3.26,10.8,10.8,0,0,1-7.71-3.19l-21.83-21.82A11,11,0,0,1-138.63,27l23.55-23.54A11,11,0,0,1-107.24.22a10.8,10.8,0,0,1,7.71,3.19l10.91,10.91c4.47,4.47,7.7,7.69,18.39,8.77h.08a25.86,25.86,0,0,0,3.5.25,27.15,27.15,0,0,0,17.06-6.51L-33.33.58a11,11,0,0,1,7.85-3.26Z"/><path class="cls-2" d="M364.29-65.6a9.11,9.11,0,0,0-6.44,2.68L334.3-39.38l-.42.47c-1.77,1.68-5.54,4.66-10.22,4.87l-1.37,0c-5.7,0-9.11-1.72-14.48-7.1l-19-19a8.87,8.87,0,0,0-6.3-2.6A9.07,9.07,0,0,0,276.09-60L252.54-36.48a9,9,0,0,0-.08,12.73L274.29-1.92A8.88,8.88,0,0,0,280.6.68,9.07,9.07,0,0,0,287-2l16.34-16.34a29.1,29.1,0,0,1,18.4-7,27.56,27.56,0,0,1,3.78.27c11.4,1.15,15,4.76,19.6,9.35L356.06-4.82a8.9,8.9,0,0,0,6.3,2.6,9.07,9.07,0,0,0,6.43-2.67l23.55-23.55a9,9,0,0,0,.07-12.73L370.59-63a8.9,8.9,0,0,0-6.3-2.6m0-2A10.8,10.8,0,0,1,372-64.41l21.83,21.82A11,11,0,0,1,393.75-27L370.2-3.48a11,11,0,0,1-7.84,3.26,10.8,10.8,0,0,1-7.71-3.19L343.74-14.32c-4.47-4.47-7.7-7.69-18.39-8.77h-.08a25.86,25.86,0,0,0-3.5-.25,27.09,27.09,0,0,0-17.06,6.51L288.45-.58a11,11,0,0,1-7.85,3.26,10.82,10.82,0,0,1-7.72-3.19L251.05-22.34a10.8,10.8,0,0,1-3.18-7.77,11,11,0,0,1,3.26-7.79l23.54-23.55a11,11,0,0,1,7.85-3.25,10.83,10.83,0,0,1,7.71,3.18l19,19c5.06,5.05,8,6.51,13.07,6.51l1.28,0c4-.18,7.24-2.72,8.87-4.26l.08-.09c.12-.14.24-.27.37-.4l23.55-23.55a11,11,0,0,1,7.85-3.26Z"/><path class="cls-2" d="M109.17-65.6a9.12,9.12,0,0,0-6.44,2.68L79.19-39.38c-.15.15-.29.31-.43.47C77-37.23,73.23-34.25,68.54-34l-1.36,0c-5.71,0-9.11-1.72-14.49-7.1l-19-19a8.85,8.85,0,0,0-6.3-2.6A9.07,9.07,0,0,0,21-60L-2.58-36.48a9,9,0,0,0-.07,12.73L19.17-1.92A8.88,8.88,0,0,0,25.48.68,9.1,9.1,0,0,0,31.92-2L48.25-18.33a29.1,29.1,0,0,1,18.4-7,27.56,27.56,0,0,1,3.78.27c11.4,1.15,15,4.76,19.6,9.35L100.94-4.82a8.91,8.91,0,0,0,6.3,2.6,9.07,9.07,0,0,0,6.43-2.67l23.55-23.55a9,9,0,0,0,.08-12.73L115.47-63a8.88,8.88,0,0,0-6.3-2.6m0-2a10.8,10.8,0,0,1,7.71,3.19l21.83,21.82A11,11,0,0,1,138.63-27L115.09-3.48a11,11,0,0,1-7.85,3.26,10.8,10.8,0,0,1-7.71-3.19L88.62-14.32c-4.47-4.47-7.7-7.69-18.39-8.77h-.08a25.75,25.75,0,0,0-3.5-.25A27,27,0,0,0,49.6-16.84L33.33-.58a11,11,0,0,1-7.85,3.26A10.84,10.84,0,0,1,17.76-.51L-4.07-22.34a10.8,10.8,0,0,1-3.18-7.77A11.08,11.08,0,0,1-4-37.9L19.56-61.45A11,11,0,0,1,27.4-64.7a10.83,10.83,0,0,1,7.71,3.18l19,19c5,5.05,8,6.51,13.07,6.51l1.27,0c4-.18,7.24-2.72,8.88-4.26l.07-.09c.12-.14.24-.27.37-.4l23.55-23.55a11,11,0,0,1,7.85-3.26Z"/></pattern></defs><g id="Calque_2" data-name="Calque 2"><g id="Calque_1-2" data-name="Calque 1"><rect class="cls-4" width="2230.47" height="1805.62"/></g></g></svg>